<svg fill="none" stroke-linecap="square" stroke-miterlimit="10" viewBox="0 0 948.165 428.478"><clipPath id="a"><path d="M0 0h948.165v428.478H0V0z"/></clipPath><g clip-path="url(#a)"><path d="M0 0h948.165v428.478H0zm171.72 189.527h625.513"/><path stroke="#000" stroke-linecap="butt" stroke-linejoin="round" stroke-width="2" d="M171.72 189.527h625.513"/><path fill="#a8dab5" fill-rule="evenodd" d="M263.823 4.033H621.9v422.992H263.823z"/><path fill="#000" fill-opacity=".135" fill-rule="evenodd" d="M316.557 232.455h275.275V390.25H316.557z"/><path fill="#fdedc5" fill-rule="evenodd" d="M308.583 224.482H583.86v157.795H308.583z"/><path fill="#000" d="M405.665 312.755l9.625-11.515h-9.344v-2.453h12.672v2.328l-9.625 11.515h9.89v2.47h-13.218v-2.345zm16.959-20.562h7.734q1.89 0 3.516.86 1.64.859 2.61 2.421.983 1.547.983 3.5 0 1.594-.718 2.969-.719 1.375-1.985 2.312-1.265.922-2.797 1.25l-.062.094 6.453 9.375v.125h-3.187l-6.25-9.344h-3.579v9.344h-2.718v-22.906zm7.578 11.031q1.187 0 2.219-.531 1.046-.547 1.671-1.516.625-.984.625-2.203 0-1.062-.546-2.015-.547-.97-1.532-1.563-.968-.61-2.234-.61h-5.063v8.438h4.86zM448 292.193h3.062l8.703 22.906h-2.968l-2.297-6.297h-9.922l-2.313 6.297h-2.968L448 292.193zm5.562 14.047l-3.062-8.266-.906-2.453h-.125l-.891 2.453-3.078 8.266h8.062zm9.253-14.047h3.937l7.297 18.781h.125l7.297-18.781h3.938v22.906h-2.688v-14.562l.125-4.344h-.125l-7.5 18.906h-2.234l-7.485-18.906h-.125l.125 4.344v14.562h-2.687v-22.906z"/><path d="M107.162 242.387h64.777V133.285h-64.745"/><path stroke="#000" stroke-linecap="butt" stroke-linejoin="round" stroke-width="2" d="M107.162 242.387h64.777V133.285h-64.745"/><path fill="#fbbc04" fill-rule="evenodd" d="M732.706 187.84c0-58.246 47.218-105.464 105.464-105.464a105.465 105.465 0 01105.465 105.465c0 58.246-47.218 105.464-105.465 105.464-58.246 0-105.464-47.218-105.464-105.464z"/><path fill="#000" d="M791.075 200.076q-1.718 0-3.343-.718-1.61-.719-2.86-2.11-1.25-1.406-1.797-3.39l2.594-1.047q.547 2.047 2.016 3.36 1.484 1.312 3.469 1.312 1.984 0 3.359-1.063 1.375-1.078 1.375-2.937 0-1.61-1.172-2.64-1.172-1.048-3.828-1.938l-1.438-.516q-2.437-.86-3.968-2.266-1.532-1.406-1.532-3.906 0-1.625.891-3.016.89-1.406 2.484-2.234 1.61-.828 3.594-.828 1.985 0 3.453.734 1.485.735 2.36 1.797.875 1.047 1.234 2.078l-2.531 1.078q-.36-1.171-1.5-2.125-1.125-.968-2.985-.968-1.75 0-3 1-1.25.984-1.25 2.484 0 1.344 1.047 2.203 1.063.844 3.203 1.578l1.516.5q2.906 1.063 4.531 2.657 1.64 1.578 1.64 4.296 0 2.204-1.14 3.72-1.14 1.5-2.875 2.202-1.718.703-3.547.703zm16.513-.265q-.985 0-1.844-.313-.844-.328-1.406-.859-1.282-1.219-1.282-3.36v-9.578h-2.859v-2.453h2.86v-4.609h2.718v4.61h4v2.452h-4v8.907q0 1.343.5 1.984.61.703 1.766.703 1 0 1.797-.547v2.657q-.485.218-.985.312-.484.094-1.265.094zm12.258.265q-2.391 0-4.313-1.156-1.922-1.156-3-3.14-1.062-1.985-1.062-4.375 0-2.407 1.062-4.391 1.078-1.984 3-3.125 1.922-1.156 4.313-1.156 2.406 0 4.328 1.156 1.922 1.14 2.984 3.125 1.078 1.984 1.078 4.39 0 2.391-1.078 4.376-1.062 1.984-2.984 3.14-1.922 1.156-4.328 1.156zm0-2.468q1.515 0 2.796-.75 1.297-.75 2.079-2.157.796-1.406.796-3.296 0-1.891-.796-3.297-.782-1.407-2.079-2.157-1.28-.765-2.796-.765-1.5 0-2.813.765-1.312.75-2.094 2.157-.78 1.406-.78 3.297 0 1.89.78 3.296.782 1.407 2.094 2.157 1.313.75 2.813.75zm11.236-14.36h2.594v2.61h.125q.484-1.344 1.86-2.219 1.374-.875 2.874-.875 1.125 0 1.922.312v2.954q-1.016-.516-2.297-.516-1.187 0-2.187.672-.985.672-1.579 1.812-.593 1.125-.593 2.438v9.125h-2.719v-16.313zm16.579 16.828q-1.797 0-3.203-.703-1.407-.703-2.172-1.937-.766-1.235-.766-2.797 0-2.594 1.938-4.047 1.953-1.469 4.937-1.469 1.469 0 2.735.328 1.265.313 1.937.735v-1q0-1.813-1.281-2.922-1.281-1.11-3.235-1.11-1.343 0-2.515.594-1.156.594-1.828 1.657l-2.047-1.547q.953-1.469 2.64-2.297 1.704-.828 3.75-.828 3.329 0 5.22 1.75 1.89 1.734 1.89 4.734v10.344h-2.594v-2.344h-.125q-.703 1.188-2.125 2.031-1.406.828-3.156.828zm.25-2.406q1.375 0 2.562-.703 1.188-.703 1.89-1.875.704-1.187.704-2.61-.766-.5-1.89-.812-1.126-.328-2.36-.328-2.25 0-3.39.922-1.126.922-1.126 2.406 0 1.344 1.016 2.172 1.031.828 2.594.828zm18.535 9.313q-2.89 0-4.766-1.344-1.86-1.344-2.5-3.234l2.5-1.047q.5 1.406 1.766 2.281 1.266.875 3 .875 2.531 0 3.922-1.469 1.39-1.469 1.39-4.156v-1.828h-.125q-.812 1.25-2.265 2.031-1.453.781-3.313.781-2.11 0-3.86-1.078-1.733-1.094-2.765-3.047-1.015-1.953-1.015-4.437 0-2.469 1.015-4.438 1.032-1.968 2.766-3.047 1.75-1.093 3.86-1.093 1.859 0 3.312.781 1.453.781 2.265 2.062h.125v-2.328h2.594v15.672q0 3.938-2.187 6-2.172 2.063-5.72 2.063zm0-9.563q1.469 0 2.672-.734 1.203-.735 1.922-2.11.718-1.39.718-3.265 0-1.922-.718-3.297-.72-1.375-1.922-2.094-1.203-.734-2.672-.734t-2.688.75q-1.218.734-1.937 2.11-.719 1.374-.719 3.265 0 1.875.719 3.281.719 1.39 1.937 2.11 1.22.718 2.688.718zm19.038 2.656q-2.344 0-4.203-1.125-1.844-1.125-2.891-3.078-1.031-1.968-1.031-4.437 0-2.344.968-4.344.985-2 2.782-3.172 1.812-1.187 4.156-1.187 2.39 0 4.14 1.078 1.766 1.062 2.704 2.953.953 1.89.953 4.312 0 .391-.063.844h-12.922q.094 1.844.891 3.125t2.031 1.922q1.235.64 2.578.64 3.204 0 4.829-2.937l2.312 1.11q-1.031 1.953-2.86 3.125-1.812 1.171-4.374 1.171zm4.703-10.406q-.063-1.015-.578-2.031-.516-1.031-1.61-1.734-1.078-.72-2.734-.72-1.922 0-3.266 1.235-1.343 1.235-1.765 3.25h9.953z"/><path fill="#4285f4" fill-rule="evenodd" d="M6.448 84.603h100.724v97.355H6.448z"/><path fill="#000" d="M38.009 145.516q-3.328 0-6.063-1.563-2.734-1.578-4.312-4.328-1.563-2.75-1.563-6.078 0-3.328 1.563-6.078 1.578-2.75 4.312-4.312 2.735-1.578 6.063-1.578 5.156 0 8.484 3.734l-2.469 2.406q-1.187-1.406-2.64-2.11-1.453-.702-3.344-.702-2.328 0-4.25 1.078-1.922 1.062-3.047 3.031-1.125 1.969-1.125 4.531 0 2.563 1.125 4.531 1.125 1.97 3.047 3.047 1.922 1.063 4.25 1.063 3.906 0 6.562-3.234l2.532 2.437q-1.672 1.953-4.016 3.047-2.328 1.078-5.11 1.078zm13.059-23.422h7.875q2.046 0 3.75.89 1.718.891 2.718 2.5 1.016 1.595 1.016 3.61 0 2.016-1.016 3.625-1 1.594-2.718 2.5-1.704.89-3.75.89h-4.36V145h-3.515v-22.906zm7.968 10.688q1.75 0 2.828-1.11 1.079-1.11 1.079-2.578 0-1.469-1.079-2.562-1.078-1.11-2.828-1.11h-4.453v7.36h4.453zM78.2 145.516q-2.563 0-4.531-1.156-1.97-1.157-3.047-3.266-1.063-2.11-1.063-4.89v-14.11h3.485v14.297q0 2.594 1.343 4.203 1.344 1.594 3.813 1.594 2.5 0 3.844-1.594 1.343-1.61 1.343-4.203v-14.297h3.485v14.11q0 2.75-1.063 4.859-1.047 2.11-3 3.281-1.953 1.172-4.61 1.172z"/><path fill="#aecbf7" fill-rule="evenodd" d="M6.448 193.709h100.724v97.354H6.448z"/><path fill="#000" d="M36.887 254.622q-3.265 0-6.015-1.563-2.75-1.578-4.375-4.312-1.61-2.735-1.61-6.094 0-3.36 1.61-6.094 1.625-2.734 4.375-4.297 2.75-1.578 6.015-1.578 2.625 0 4.828.938 2.22.921 3.75 2.578l-2.437 2.437q-2.328-2.625-6.14-2.625-2.235 0-4.188 1.078-1.953 1.063-3.11 3.047-1.156 1.985-1.156 4.516 0 2.562 1.172 4.531 1.172 1.969 3.11 3.047 1.937 1.062 4.202 1.062 3.625 0 5.891-2.28.734-.704 1.234-1.782.5-1.094.688-2.406h-7.875v-3.11h11.14q.188 1.094.188 1.86 0 2.172-.687 4.14-.688 1.97-2.125 3.485-1.532 1.656-3.688 2.547-2.14.875-4.797.875zM52.252 231.2h7.875q2.046 0 3.75.89 1.718.89 2.718 2.5 1.016 1.594 1.016 3.61 0 2.015-1.016 3.625-1 1.593-2.718 2.5-1.704.89-3.75.89h-4.36v8.89h-3.515V231.2zm7.968 10.687q1.75 0 2.828-1.11 1.079-1.109 1.079-2.577 0-1.47-1.079-2.563-1.078-1.11-2.828-1.11h-4.453v7.36h4.453zm19.164 12.735q-2.563 0-4.531-1.157-1.97-1.156-3.047-3.265-1.063-2.11-1.063-4.89V231.2h3.485v14.297q0 2.593 1.343 4.203 1.344 1.593 3.813 1.593 2.5 0 3.844-1.593 1.343-1.61 1.343-4.203V231.2h3.485v14.11q0 2.75-1.063 4.858-1.047 2.11-3 3.282-1.953 1.172-4.61 1.172z"/><path d="M285.382 43.15h314.96v62.71h-314.96z"/><path fill="#000" d="M410.432 59.964h8.031q2.078 0 3.75.891 1.688.89 2.656 2.5.985 1.594.985 3.61 0 2.312-1.485 4.093-1.484 1.766-3.734 2.375l-.031.156 6.312 9.094v.188h-4.062l-6.125-8.985h-2.781v8.985h-3.516V59.964zm7.937 10.688q1.657 0 2.797-1.063 1.141-1.062 1.141-2.656 0-1.469-1.047-2.562-1.031-1.11-2.766-1.11h-4.546v7.391h4.421zm18.114-10.688h4l8.672 22.907h-3.875l-2.11-5.89h-9.343l-2.11 5.89h-3.874l8.64-22.907zm5.532 13.75l-2.563-7-.86-2.625h-.187l-.875 2.625-2.562 7h7.047zm10.21-13.75h4.733l6.688 17.438h.187l6.72-17.438h4.734v22.907h-3.454V69.918l.204-4.079h-.204l-6.687 17.032h-2.781l-6.688-17.032h-.187l.187 4.079V82.87h-3.453V59.964z"/></g></svg>