<svg fill="none" stroke-linecap="square" stroke-miterlimit="10" viewBox="0 0 953.115 438.197"><clipPath id="a"><path d="M0 0h953.115v438.197H0V0z"/></clipPath><g clip-path="url(#a)"><path d="M0 0h953.115v438.197H0zm176.68 192.98h625.512"/><path stroke="#000" stroke-linecap="butt" stroke-linejoin="round" stroke-width="2" d="M176.68 192.98h625.512"/><path fill="#a8dab5" fill-rule="evenodd" d="M268.782 7.486h358.079v422.992H268.782z"/><path fill="#000" fill-opacity=".135" fill-rule="evenodd" d="M321.516 235.908H596.79v157.795H321.516z"/><path fill="#fdedc5" fill-rule="evenodd" d="M313.543 227.935h275.275V385.73H313.543z"/><path fill="#000" d="M410.624 316.208l9.625-11.515h-9.344v-2.453h12.672v2.328l-9.625 11.515h9.89v2.47h-13.218v-2.345zm16.959-20.562h7.734q1.89 0 3.516.86 1.64.859 2.61 2.421.984 1.547.984 3.5 0 1.594-.72 2.969-.718 1.375-1.983 2.312-1.266.922-2.797 1.25l-.063.094 6.453 9.375v.125h-3.187l-6.25-9.344h-3.578v9.344h-2.72v-22.906zm7.578 11.031q1.188 0 2.219-.531 1.047-.547 1.672-1.516.625-.984.625-2.203 0-1.062-.547-2.016-.547-.968-1.531-1.562-.97-.61-2.235-.61h-5.062v8.438h4.86zm17.799-11.031h3.062l8.704 22.906h-2.97l-2.296-6.297h-9.922l-2.312 6.297h-2.97l8.704-22.906zm5.562 14.047l-3.062-8.266-.906-2.453h-.125l-.89 2.453-3.079 8.266h8.062zm9.253-14.047h3.938l7.296 18.781h.125l7.297-18.781h3.938v22.906h-2.688V303.99l.125-4.344h-.125l-7.5 18.906h-2.234l-7.484-18.906h-.125l.125 4.344v14.562h-2.688v-22.906z"/><path d="M112.121 245.84h64.777V136.738h-64.745"/><path stroke="#000" stroke-linecap="butt" stroke-linejoin="round" stroke-width="2" d="M112.121 245.84h64.777V136.738h-64.745"/><path fill="#fbbc04" fill-rule="evenodd" d="M737.665 191.294c0-58.247 47.218-105.465 105.465-105.465a105.465 105.465 0 01105.464 105.465c0 58.246-47.218 105.464-105.464 105.464-58.247 0-105.465-47.218-105.465-105.464z"/><path fill="#000" d="M796.035 203.53q-1.72 0-3.344-.72-1.61-.718-2.86-2.109-1.25-1.406-1.796-3.39l2.593-1.047q.547 2.047 2.016 3.36 1.484 1.312 3.469 1.312 1.984 0 3.36-1.063 1.374-1.078 1.374-2.937 0-1.61-1.172-2.64-1.172-1.048-3.828-1.938l-1.437-.516q-2.438-.86-3.97-2.266-1.53-1.406-1.53-3.906 0-1.625.89-3.016.89-1.406 2.485-2.234 1.609-.828 3.593-.828 1.985 0 3.454.734 1.484.735 2.359 1.797.875 1.047 1.234 2.078l-2.531 1.078q-.36-1.171-1.5-2.125-1.125-.968-2.984-.968-1.75 0-3 1-1.25.984-1.25 2.484 0 1.344 1.047 2.203 1.062.844 3.203 1.578l1.515.5q2.907 1.063 4.532 2.657 1.64 1.578 1.64 4.296 0 2.204-1.14 3.72-1.141 1.5-2.875 2.202-1.72.703-3.547.703zm16.512-.266q-.985 0-1.844-.313-.844-.328-1.406-.86-1.281-1.218-1.281-3.358v-9.579h-2.86v-2.453h2.86v-4.61h2.718v4.61h4v2.453h-4v8.907q0 1.343.5 1.984.61.703 1.766.703 1 0 1.797-.547v2.657q-.485.218-.985.312-.484.094-1.265.094zm12.258.265q-2.39 0-4.313-1.156-1.922-1.156-3-3.14-1.062-1.985-1.062-4.375 0-2.407 1.062-4.391 1.078-1.984 3-3.125 1.922-1.156 4.313-1.156 2.406 0 4.328 1.156 1.922 1.14 2.984 3.125 1.078 1.984 1.078 4.39 0 2.391-1.078 4.376-1.062 1.984-2.984 3.14-1.922 1.156-4.328 1.156zm0-2.468q1.515 0 2.797-.75 1.297-.75 2.078-2.157.797-1.406.797-3.296 0-1.891-.797-3.297-.781-1.407-2.078-2.157-1.282-.765-2.797-.765-1.5 0-2.813.765-1.312.75-2.093 2.157-.782 1.406-.782 3.297 0 1.89.782 3.296.78 1.407 2.093 2.157t2.813.75zm11.236-14.36h2.594v2.61h.125q.484-1.344 1.86-2.22 1.374-.874 2.874-.874 1.125 0 1.922.312v2.954q-1.015-.516-2.297-.516-1.187 0-2.187.672-.984.672-1.578 1.812-.594 1.125-.594 2.438v9.125h-2.719V186.7zm16.579 16.828q-1.797 0-3.203-.703t-2.172-1.937q-.766-1.235-.766-2.797 0-2.594 1.938-4.047 1.953-1.469 4.937-1.469 1.47 0 2.735.328 1.265.313 1.937.735v-1q0-1.813-1.281-2.922-1.281-1.11-3.234-1.11-1.344 0-2.516.594-1.156.594-1.828 1.657l-2.047-1.547q.953-1.47 2.64-2.297 1.704-.828 3.75-.828 3.329 0 5.22 1.75 1.89 1.734 1.89 4.734v10.344h-2.594v-2.344h-.125q-.703 1.188-2.125 2.031-1.406.828-3.156.828zm.25-2.406q1.375 0 2.562-.703 1.188-.703 1.891-1.875.703-1.187.703-2.61-.765-.5-1.89-.812-1.125-.328-2.36-.328-2.25 0-3.39.922-1.125.922-1.125 2.406 0 1.344 1.015 2.172 1.031.828 2.594.828zm18.535 9.313q-2.89 0-4.765-1.344-1.86-1.344-2.5-3.234l2.5-1.047q.5 1.406 1.765 2.28 1.266.876 3 .876 2.531 0 3.922-1.469 1.39-1.469 1.39-4.156v-1.828h-.124q-.813 1.25-2.266 2.031-1.453.781-3.312.781-2.11 0-3.86-1.078-1.734-1.094-2.765-3.047-1.016-1.953-1.016-4.437 0-2.469 1.016-4.438 1.03-1.968 2.765-3.047 1.75-1.093 3.86-1.093 1.859 0 3.312.78 1.453.782 2.266 2.063h.125v-2.328h2.593v15.672q0 3.938-2.187 6-2.172 2.063-5.719 2.063zm0-9.563q1.469 0 2.672-.734 1.203-.735 1.922-2.11.719-1.39.719-3.265 0-1.922-.72-3.297-.718-1.375-1.921-2.094-1.203-.734-2.672-.734t-2.687.75q-1.22.734-1.938 2.11-.719 1.374-.719 3.265 0 1.875.72 3.281.718 1.39 1.937 2.11 1.218.718 2.687.718zm19.038 2.656q-2.344 0-4.203-1.125-1.844-1.125-2.89-3.078-1.032-1.968-1.032-4.437 0-2.344.969-4.344.984-2 2.78-3.172 1.813-1.187 4.157-1.187 2.39 0 4.14 1.078 1.766 1.062 2.704 2.953.953 1.89.953 4.312 0 .391-.062.844h-12.922q.093 1.844.89 3.125t2.032 1.922q1.234.64 2.578.64 3.203 0 4.828-2.937l2.312 1.11q-1.03 1.953-2.86 3.125-1.812 1.171-4.374 1.171zm4.703-10.406q-.062-1.015-.578-2.031-.516-1.031-1.61-1.734-1.078-.72-2.734-.72-1.922 0-3.265 1.235-1.344 1.235-1.766 3.25h9.953z"/><path fill="#4285f4" fill-rule="evenodd" d="M11.407 88.056H112.13v97.355H11.407z"/><path fill="#000" d="M42.968 148.969q-3.328 0-6.063-1.563-2.734-1.578-4.312-4.328-1.563-2.75-1.563-6.078 0-3.328 1.563-6.078 1.578-2.75 4.312-4.312 2.735-1.579 6.063-1.579 5.156 0 8.484 3.735l-2.468 2.406q-1.188-1.406-2.641-2.11-1.453-.702-3.344-.702-2.328 0-4.25 1.078-1.922 1.062-3.047 3.031-1.125 1.969-1.125 4.531 0 2.563 1.125 4.531 1.125 1.97 3.047 3.047 1.922 1.063 4.25 1.063 3.906 0 6.563-3.235l2.531 2.438q-1.672 1.953-4.016 3.047-2.328 1.078-5.109 1.078zm13.059-23.422h7.875q2.047 0 3.75.89 1.719.891 2.719 2.5 1.015 1.594 1.015 3.61t-1.015 3.625q-1 1.594-2.72 2.5-1.702.89-3.75.89h-4.359v8.891h-3.515v-22.906zm7.969 10.688q1.75 0 2.828-1.11 1.078-1.11 1.078-2.578 0-1.469-1.078-2.562-1.078-1.11-2.828-1.11h-4.454v7.36h4.454zm19.163 12.734q-2.562 0-4.531-1.156-1.969-1.157-3.047-3.266-1.063-2.11-1.063-4.89v-14.11h3.485v14.297q0 2.594 1.344 4.203 1.343 1.594 3.812 1.594 2.5 0 3.844-1.594 1.344-1.61 1.344-4.203v-14.297h3.484v14.11q0 2.75-1.063 4.859-1.046 2.11-3 3.281-1.953 1.172-4.609 1.172z"/><path fill="#aecbf7" fill-rule="evenodd" d="M11.407 197.162H112.13v97.354H11.407z"/><path fill="#000" d="M41.846 258.075q-3.265 0-6.015-1.563-2.75-1.578-4.375-4.313-1.61-2.734-1.61-6.093 0-3.36 1.61-6.094 1.625-2.734 4.375-4.297 2.75-1.578 6.015-1.578 2.625 0 4.829.938 2.218.921 3.75 2.578l-2.438 2.437q-2.328-2.625-6.14-2.625-2.235 0-4.188 1.078-1.953 1.063-3.11 3.047-1.156 1.984-1.156 4.516 0 2.562 1.172 4.531 1.172 1.969 3.11 3.047 1.937 1.062 4.203 1.062 3.625 0 5.89-2.28.735-.704 1.235-1.782.5-1.094.687-2.406h-7.875v-3.11h11.14q.188 1.094.188 1.86 0 2.172-.687 4.14-.688 1.969-2.125 3.485-1.531 1.656-3.688 2.547-2.14.875-4.797.875zm15.365-23.422h7.875q2.047 0 3.75.89 1.719.89 2.719 2.5 1.015 1.594 1.015 3.61 0 2.015-1.015 3.625-1 1.593-2.72 2.5-1.702.89-3.75.89h-4.359v8.89h-3.515v-22.905zm7.969 10.687q1.75 0 2.828-1.11 1.078-1.109 1.078-2.577 0-1.47-1.078-2.563-1.078-1.11-2.828-1.11h-4.454v7.36h4.454zm19.163 12.734q-2.562 0-4.531-1.156-1.969-1.156-3.047-3.265-1.063-2.11-1.063-4.891v-14.11h3.485v14.298q0 2.593 1.344 4.203 1.343 1.593 3.812 1.593 2.5 0 3.844-1.593 1.344-1.61 1.344-4.203v-14.297h3.484v14.109q0 2.75-1.063 4.86-1.046 2.109-3 3.28-1.953 1.173-4.609 1.173z"/><path d="M290.341 46.604h314.96v62.708h-314.96z"/><path fill="#000" d="M415.391 63.417h8.031q2.079 0 3.75.891 1.688.89 2.657 2.5.984 1.594.984 3.61 0 2.312-1.484 4.093-1.485 1.766-3.735 2.375l-.03.156 6.312 9.094v.188h-4.063l-6.125-8.985h-2.781v8.985h-3.516V63.417zm7.938 10.688q1.656 0 2.797-1.063 1.14-1.062 1.14-2.656 0-1.469-1.047-2.562-1.03-1.11-2.765-1.11h-4.547v7.39h4.422zm18.114-10.688h4l8.671 22.907h-3.875l-2.109-5.89h-9.344l-2.11 5.89h-3.874l8.64-22.907zm5.53 13.75l-2.562-7-.86-2.625h-.187l-.875 2.625-2.562 7h7.047zm10.21-13.75h4.735l6.687 17.438h.188l6.718-17.438h4.735v22.907h-3.453V73.37l.203-4.079h-.203l-6.688 17.032h-2.781l-6.688-17.032h-.187l.187 4.079v12.953h-3.453V63.417z"/><defs><linearGradient id="b" x1="64.849" x2="64.849" y1="18.216" y2="26.135" gradientTransform="scale(7.91889)" gradientUnits="userSpaceOnUse" spreadMethod="pad"><stop offset="0" stop-color="#ffc002"/><stop offset="1" stop-color="#795b04"/></linearGradient></defs><path fill="url(#b)" fill-rule="evenodd" d="M513.535 144.252h47.748v54.751l-7.958 7.958h-39.79z"/><defs><linearGradient id="c" x1="64.849" x2="64.849" y1="18.216" y2="26.135" gradientTransform="scale(7.91889)" gradientUnits="userSpaceOnUse" spreadMethod="pad"><stop offset="0" stop-color="#ffc002"/><stop offset="1" stop-color="#795b04"/></linearGradient></defs><path fill="url(#c)" fill-rule="evenodd" d="M553.325 206.961l1.592-6.366 6.366-1.592z"/><path d="M553.325 206.961l1.592-6.366 6.366-1.592-7.958 7.958h-39.79v-62.709h47.748v54.751"/><path fill="#000" fill-opacity=".2" fill-rule="evenodd" d="M553.325 206.961l1.592-6.366 6.366-1.592z"/><path stroke="#75787b" stroke-linecap="butt" stroke-linejoin="round" d="M553.325 206.961l1.592-6.366 6.366-1.592-7.958 7.958h-39.79v-62.709h47.748v54.751"/><defs><linearGradient id="d" x1="80.088" x2="80.088" y1="43.893" y2="50.385" gradientTransform="scale(6.49168)" gradientUnits="userSpaceOnUse" spreadMethod="pad"><stop offset="0" stop-color="#ffc002"/><stop offset="1" stop-color="#795b04"/></linearGradient></defs><path fill="url(#d)" fill-rule="evenodd" d="M519.903 284.94h34.426v36.404l-5.738 5.737h-28.688z"/><defs><linearGradient id="e" x1="80.088" x2="80.088" y1="43.893" y2="50.385" gradientTransform="scale(6.49168)" gradientUnits="userSpaceOnUse" spreadMethod="pad"><stop offset="0" stop-color="#ffc002"/><stop offset="1" stop-color="#795b04"/></linearGradient></defs><path fill="url(#e)" fill-rule="evenodd" d="M548.59 327.081l1.148-4.59 4.59-1.147z"/><path d="M548.59 327.081l1.148-4.59 4.59-1.147-5.737 5.737h-28.688V284.94h34.426v36.404"/><path fill="#000" fill-opacity=".2" fill-rule="evenodd" d="M548.59 327.081l1.148-4.59 4.59-1.147z"/><path stroke="#75787b" stroke-linecap="butt" stroke-linejoin="round" d="M548.59 327.081l1.148-4.59 4.59-1.147-5.737 5.737h-28.688V284.94h34.426v36.404"/><path d="M537.41 206.961l-.473 75.37"/><path stroke="#000" stroke-linecap="butt" stroke-linejoin="round" d="M537.41 206.961l-.436 69.37"/><path fill="#000" fill-rule="evenodd" stroke="#000" stroke-linecap="butt" d="M535.323 276.321l1.623 4.548 1.68-4.527z"/></g></svg>