<svg fill="none" stroke-linecap="square" stroke-miterlimit="10" viewBox="0 0 520.819 566.556"><clipPath id="a"><path d="M0 0h520.819v566.556H0V0z"/></clipPath><g clip-path="url(#a)"><path d="M0 0h520.819v566.556H0z"/><path stroke="#999" stroke-linecap="butt" stroke-width="1.333" d="M17.029 11.294v522.433M151.643 11.294v522.433m355.27-522.433v522.433M16.363 11.961H507.58M16.362 69.294H507.58M16.362 139.627H507.58M16.362 209.961H507.58M16.362 280.294H507.58M16.362 334.858H507.58M16.362 405.192H507.58M16.362 458.785H507.58M16.362 497.609H507.58M16.362 533.06H507.58"/><path fill="#000" d="M24.31 21.868h4.11q.859 0 1.624.406.766.39 1.204 1.094.453.703.453 1.578 0 .843-.422 1.468t-1.14.954v.062q.859.297 1.405 1 .547.703.547 1.64 0 .938-.484 1.688-.469.735-1.266 1.156-.78.407-1.703.407H24.31V21.868zm4.11 4.937q.578 0 1.015-.266.438-.265.672-.687.25-.422.25-.875 0-.422-.234-.844-.235-.422-.657-.687-.422-.282-.984-.282h-2.813v3.641h2.75zm.312 5.219q.562 0 1.016-.281.468-.297.718-.75.25-.454.25-.938 0-.484-.265-.937-.25-.454-.719-.735-.469-.281-1.078-.281h-2.985v3.922h3.063zm7.602 1.547q-.89 0-1.593-.344-.704-.36-1.094-.969-.375-.625-.375-1.406 0-1.297.969-2.016.984-.734 2.468-.734.735 0 1.36.172.64.156.968.36v-.5q0-.907-.64-1.454-.625-.562-1.61-.562-.671 0-1.265.296-.578.297-.906.829l-1.032-.766q.485-.734 1.328-1.156.86-.422 1.875-.422 1.672 0 2.61.875.937.875.937 2.375v5.172h-1.297v-1.172h-.062q-.344.594-1.047 1.015-.703.407-1.594.407zm.14-1.188q.688 0 1.267-.344.593-.359.937-.953.36-.593.36-1.297-.376-.265-.938-.421-.563-.157-1.188-.157-1.109 0-1.687.469-.563.453-.563 1.188 0 .671.5 1.093.516.422 1.313.422zm9.37 1.188q-1.187 0-2.14-.563-.938-.562-1.47-1.547-.515-.984-.515-2.218 0-1.235.516-2.22.53-1 1.468-1.562.954-.562 2.141-.562 1.328 0 2.234.625.907.61 1.282 1.64l-1.235.516q-.297-.766-.906-1.156-.594-.39-1.437-.39-.72 0-1.344.39-.625.39-1 1.11-.375.702-.375 1.609 0 .906.375 1.609t1 1.11q.625.39 1.344.39.859 0 1.484-.406.625-.407.937-1.141l1.204.516q-.407 1.015-1.329 1.64-.921.61-2.234.61zm5.049-11.703h1.359v7.203l3.828-3.907h1.734v.063l-3.203 3.234 3.297 4.797v.063h-1.625l-2.625-3.922-1.406 1.406v2.516h-1.36V21.868zM62.39 37.039q-1.438 0-2.375-.671-.938-.672-1.266-1.625L60 34.21q.266.703.89 1.14.641.454 1.5.454 1.266 0 1.954-.734.703-.735.703-2.094v-.906h-.063q-.406.625-1.14 1.015-.719.39-1.64.39-1.063 0-1.938-.53-.875-.547-1.39-1.516-.5-.984-.5-2.234 0-1.235.5-2.22.515-.983 1.39-1.53.875-.547 1.937-.547.922 0 1.64.406.735.39 1.141 1.031h.063v-1.172h1.297v7.844q0 1.953-1.094 2.985-1.078 1.046-2.86 1.046zm0-4.796q.734 0 1.328-.36.61-.375.969-1.062.359-.688.359-1.625 0-.97-.36-1.657-.359-.687-.968-1.046-.594-.36-1.328-.36-.735 0-1.344.375-.61.36-.969 1.047-.36.688-.36 1.64 0 .938.36 1.641.36.688.969 1.047.61.36 1.344.36zm5.974-7.079h1.28v1.313h.079q.234-.672.922-1.11.687-.453 1.437-.453.563 0 .97.172v1.469q-.517-.266-1.157-.266-.594 0-1.094.344-.5.328-.797.906-.281.563-.281 1.22v4.562h-1.36v-8.157zm9.27 8.407q-1.204 0-2.172-.563-.953-.578-1.485-1.562-.53-1-.53-2.203 0-1.204.53-2.188.532-1 1.485-1.578.968-.578 2.172-.578 1.203 0 2.156.578.969.578 1.5 1.578.531.984.531 2.188 0 1.203-.531 2.203-.531.984-1.5 1.562-.953.563-2.156.563zm0-1.22q.75 0 1.39-.374.656-.39 1.047-1.094.39-.703.39-1.64 0-.954-.39-1.657-.39-.703-1.047-1.078-.64-.375-1.39-.375-.75 0-1.407.375-.656.375-1.047 1.078-.39.703-.39 1.657 0 .937.39 1.64.391.703 1.047 1.094.657.375 1.407.375zm8.659 1.22q-1.469 0-2.25-.86-.782-.86-.782-2.422v-5.125h1.36v4.922q0 1.172.531 1.719.531.547 1.422.547.687 0 1.219-.375.547-.375.843-.953.297-.594.297-1.25v-4.61h1.36v8.157h-1.297v-1.188h-.063q-.343.61-1.078 1.031-.734.407-1.562.407zm6.023-8.407h1.28v1.204h.079q.328-.61 1.063-1.032.734-.437 1.578-.437 1.468 0 2.234.86.781.859.781 2.327v5.235h-1.36v-5.032q0-1.125-.546-1.64-.547-.516-1.484-.516-.657 0-1.188.375-.515.36-.797.969-.281.594-.281 1.25v4.594h-1.36v-8.157zm12.444 8.407q-1.109 0-2-.547-.89-.563-1.406-1.547-.5-.984-.5-2.234 0-1.235.5-2.22.516-1 1.406-1.562.891-.562 2-.562.922 0 1.657.437.734.422 1.125 1.047h.062l-.062-1.14v-3.375h1.359V33.32h-1.297v-1.203h-.062q-.391.609-1.125 1.03-.735.423-1.657.423zm.141-1.22q.719 0 1.328-.39.625-.39 1-1.093.375-.704.375-1.625 0-.938-.375-1.641-.375-.703-1-1.078-.61-.39-1.328-.39-.703 0-1.328.39-.625.375-1 1.094-.375.718-.375 1.625 0 .906.375 1.625.375.703 1 1.093t1.328.39zm5.007.97zm-83.27 22.25q-.891 0-1.595-.344-.703-.36-1.093-.969-.375-.625-.375-1.406 0-1.297.968-2.016.985-.734 2.47-.734.734 0 1.359.172.64.156.968.36v-.5q0-.907-.64-1.454-.625-.562-1.61-.562-.672 0-1.265.296-.578.297-.907.829l-1.03-.766q.484-.734 1.327-1.156.86-.422 1.875-.422 1.672 0 2.61.875.937.875.937 2.375v5.172H29.34v-1.172h-.062q-.344.594-1.047 1.015-.703.407-1.594.407zm.14-1.188q.687 0 1.265-.344.594-.359.938-.953.36-.593.36-1.297-.376-.265-.938-.421-.563-.157-1.188-.157-1.109 0-1.687.469-.563.453-.563 1.188 0 .671.5 1.093.516.422 1.313.422zm5.683-7.219h1.297v1.22h.063q.375-.626 1.11-1.048.75-.437 1.687-.437 1.093 0 1.984.562.89.563 1.39 1.563.516.984.516 2.219 0 1.25-.515 2.234-.5.984-1.391 1.547-.89.547-1.984.547-.938 0-1.688-.422-.734-.422-1.11-1.031h-.062l.063 1.125v3.53h-1.36V47.165zm4 7.188q.704 0 1.329-.39.625-.391.984-1.094.375-.704.375-1.625 0-.938-.375-1.641-.36-.703-.984-1.078-.625-.39-1.329-.39-.718 0-1.343.39-.61.375-.985 1.078-.375.703-.375 1.64 0 .922.375 1.626.375.703.985 1.093.625.39 1.343.39zm5.408-7.188h1.297v1.22h.063q.375-.626 1.11-1.048.75-.437 1.687-.437 1.093 0 1.984.562.89.563 1.39 1.563.516.984.516 2.219 0 1.25-.515 2.234-.5.984-1.391 1.547-.89.547-1.984.547-.938 0-1.688-.422-.734-.422-1.11-1.031h-.062l.063 1.125v3.53h-1.36V47.165zm4 7.188q.704 0 1.329-.39.625-.391.984-1.094.375-.704.375-1.625 0-.938-.375-1.641-.36-.703-.984-1.078-.625-.39-1.329-.39-.718 0-1.343.39-.61.375-.985 1.078-.375.703-.375 1.64 0 .922.375 1.626.375.703.985 1.093.625.39 1.343.39zm8.41 1.219q-1.312 0-2.203-.61-.875-.61-1.234-1.578l1.203-.547q.312.735.906 1.14.61.407 1.328.407.766 0 1.313-.312.547-.313.547-.891 0-.516-.438-.828-.437-.313-1.36-.531l-1-.266q-.968-.234-1.593-.812-.625-.579-.625-1.485 0-.703.422-1.234.422-.547 1.125-.828.703-.297 1.531-.297 1.063 0 1.906.469.844.468 1.188 1.296l-1.172.547q-.547-1.093-1.937-1.093-.672 0-1.188.312-.5.313-.5.797 0 .453.344.734.36.266 1.062.453l1.188.297q1.203.313 1.812.907.61.593.61 1.468 0 .75-.438 1.313-.437.562-1.172.875-.734.297-1.625.297zM24.31 79.2h3.86q.953 0 1.765.437.828.422 1.313 1.203.484.766.484 1.75 0 .97-.484 1.75-.485.782-1.313 1.22-.812.421-1.766.421h-2.5v4.672H24.31V79.201zm3.89 5.484q.641 0 1.126-.297.484-.312.75-.78.281-.485.281-1.017 0-.53-.281-1-.266-.484-.75-.78-.485-.313-1.125-.313h-2.532v4.187h2.532zm5.06-2.187h1.282v1.312h.078q.234-.672.922-1.11.687-.452 1.437-.452.563 0 .969.172v1.468q-.516-.265-1.156-.265-.594 0-1.094.343-.5.329-.797.907-.281.562-.281 1.218v4.563h-1.36v-8.156zm9.146 8.406q-1.172 0-2.11-.547-.922-.562-1.437-1.547-.516-.984-.516-2.219 0-1.171.484-2.171.485-1 1.391-1.594.906-.594 2.078-.594 1.203 0 2.078.547.875.531 1.344 1.484.484.938.484 2.157 0 .187-.03.406h-6.47q.047.937.438 1.578.406.64 1.016.969.625.312 1.296.312 1.594 0 2.422-1.484l1.14.562q-.5.985-1.421 1.563-.906.578-2.187.578zm2.343-5.188q-.031-.515-.281-1.03-.25-.516-.797-.86-.547-.36-1.375-.36-.969 0-1.64.625-.672.61-.875 1.625h4.968zm1.973-3.218h1.453l2.532 6.562h.03l2.563-6.562h1.422l-3.328 8.156H50.02l-3.297-8.156zm9.927-1.5q-.406 0-.703-.282-.28-.296-.28-.703 0-.422.28-.687.297-.281.703-.281.407 0 .688.28.281.266.281.688 0 .407-.281.703-.281.282-.688.282zm-.671 1.5h1.359v8.156h-1.36v-8.156zm7.16 8.406q-1.203 0-2.171-.563-.953-.578-1.485-1.562-.53-1-.53-2.203 0-1.203.53-2.188.532-1 1.485-1.578.968-.578 2.172-.578 1.203 0 2.156.578.969.578 1.5 1.578.531.985.531 2.188 0 1.203-.531 2.203-.531.984-1.5 1.562-.953.563-2.156.563zm0-1.219q.75 0 1.391-.375.656-.39 1.047-1.094.39-.703.39-1.64 0-.953-.39-1.656-.39-.704-1.047-1.079-.64-.375-1.39-.375-.75 0-1.407.375-.656.375-1.047 1.079-.39.703-.39 1.656 0 .937.39 1.64.391.704 1.047 1.094.657.375 1.407.375zm8.66 1.219q-1.469 0-2.25-.86-.782-.859-.782-2.421v-5.125h1.36v4.922q0 1.171.531 1.718.531.547 1.422.547.687 0 1.219-.375.547-.375.843-.953.297-.594.297-1.25v-4.61h1.36v8.157H74.5v-1.188h-.063q-.343.61-1.078 1.032-.734.406-1.562.406zm8.786 0q-1.312 0-2.203-.61-.875-.609-1.234-1.578l1.203-.546q.312.734.906 1.14.61.406 1.328.406.766 0 1.313-.312.547-.313.547-.89 0-.516-.438-.829-.437-.312-1.36-.531l-1-.266q-.968-.234-1.593-.812-.625-.578-.625-1.485 0-.703.422-1.234.422-.547 1.125-.828.703-.297 1.531-.297 1.063 0 1.906.469.844.469 1.188 1.297l-1.172.547q-.547-1.094-1.937-1.094-.672 0-1.188.312-.5.313-.5.797 0 .453.344.735.36.265 1.062.453l1.188.297q1.203.312 1.812.906.61.594.61 1.469 0 .75-.438 1.312-.437.563-1.172.875-.734.297-1.625.297zm3.709-.25zm7.321.25q-.89 0-1.593-.344-.704-.36-1.094-.969-.375-.625-.375-1.406 0-1.297.969-2.015.984-.735 2.468-.735.735 0 1.36.172.64.156.968.36v-.5q0-.907-.64-1.454-.625-.562-1.61-.562-.671 0-1.265.297-.578.297-.906.828l-1.032-.766q.485-.734 1.328-1.156.86-.422 1.875-.422 1.672 0 2.61.875.937.875.937 2.375v5.172h-1.297v-1.172h-.062q-.344.594-1.047 1.016-.703.406-1.594.406zm.141-1.188q.687 0 1.266-.343.593-.36.937-.953.36-.594.36-1.297-.376-.266-.938-.422-.563-.156-1.188-.156-1.109 0-1.687.468-.563.453-.563 1.188 0 .672.5 1.094.516.421 1.313.421zm5.684-7.218h1.296v1.218h.063q.375-.625 1.11-1.046.75-.438 1.687-.438 1.094 0 1.984.563.89.562 1.39 1.562.516.984.516 2.219 0 1.25-.515 2.234-.5.985-1.39 1.547-.891.547-1.985.547-.938 0-1.688-.422-.734-.422-1.11-1.031h-.062l.063 1.125v3.531h-1.36v-11.61zm4 7.187q.703 0 1.328-.39.625-.391.984-1.094.375-.703.375-1.625 0-.938-.375-1.64-.36-.704-.984-1.079-.625-.39-1.328-.39-.72 0-1.344.39-.61.375-.985 1.078-.375.703-.375 1.64 0 .923.375 1.626.375.703.985 1.094.625.39 1.344.39zm5.408-7.187h1.296v1.218h.063q.375-.625 1.11-1.046.75-.438 1.687-.438 1.094 0 1.984.563.89.562 1.39 1.562.516.984.516 2.219 0 1.25-.515 2.234-.5.985-1.39 1.547-.891.547-1.985.547-.938 0-1.688-.422-.734-.422-1.11-1.031h-.062l.063 1.125v3.531h-1.36v-11.61zm4 7.187q.703 0 1.328-.39.625-.391.984-1.094.375-.703.375-1.625 0-.938-.375-1.64-.36-.704-.984-1.079-.625-.39-1.328-.39-.72 0-1.344.39-.61.375-.985 1.078-.375.703-.375 1.64 0 .923.375 1.626.375.703.985 1.094.625.39 1.344.39zm-86.537 59.85h1.36v4.937h5.89v-4.938h1.36v11.453h-1.36v-5.218h-5.89v5.218h-1.36v-11.453zm14.493 11.702q-1.204 0-2.172-.562-.953-.578-1.485-1.563-.531-1-.531-2.203 0-1.203.531-2.187.532-1 1.485-1.578.968-.579 2.172-.579 1.203 0 2.156.579.969.578 1.5 1.578.531.984.531 2.187 0 1.203-.531 2.203-.531.985-1.5 1.563-.953.562-2.156.562zm0-1.218q.75 0 1.39-.375.656-.391 1.047-1.094.39-.703.39-1.64 0-.954-.39-1.657-.39-.703-1.047-1.078-.64-.375-1.39-.375-.75 0-1.407.375-.656.375-1.047 1.078-.39.703-.39 1.656 0 .938.39 1.64.391.704 1.047 1.095.657.375 1.407.375zm5.626-7.188h1.28v1.203h.079q.344-.625 1.047-1.047.703-.422 1.484-.422.906 0 1.563.438.672.437.953 1.156.437-.719 1.14-1.156.72-.438 1.657-.438 1.406 0 2.125.86.718.86.718 2.328v5.234h-1.343v-5.03q0-1.126-.47-1.642-.468-.515-1.374-.515-.61 0-1.11.36-.5.343-.78.937-.266.593-.266 1.28v4.61h-1.36v-5.015q0-1.14-.468-1.657-.47-.515-1.36-.515-.61 0-1.11.36-.5.359-.78.968-.266.594-.266 1.281v4.578h-1.36v-8.156zm17.64 8.406q-1.171 0-2.109-.547-.922-.562-1.437-1.546-.516-.985-.516-2.22 0-1.171.484-2.171.485-1 1.391-1.594.906-.594 2.078-.594 1.203 0 2.078.547.875.532 1.344 1.485.484.937.484 2.156 0 .187-.03.406h-6.47q.047.938.438 1.578.406.64 1.016.97.625.312 1.296.312 1.594 0 2.422-1.485l1.14.563q-.5.984-1.42 1.562-.907.578-2.188.578zm2.344-5.187q-.03-.516-.28-1.031-.25-.516-.798-.86-.547-.36-1.375-.36-.969 0-1.64.626-.672.61-.875 1.625h4.968zm2.024 4.937zm7.321.25q-.89 0-1.593-.343-.704-.36-1.094-.97-.375-.624-.375-1.405 0-1.297.969-2.016.984-.734 2.468-.734.735 0 1.36.171.64.157.968.36v-.5q0-.906-.64-1.453-.625-.563-1.61-.563-.671 0-1.265.297-.578.297-.906.828l-1.032-.765q.485-.735 1.328-1.157.86-.422 1.875-.422 1.672 0 2.61.875.937.875.937 2.375v5.172h-1.297v-1.172H76.4q-.344.594-1.047 1.016-.703.406-1.594.406zm.141-1.187q.687 0 1.266-.344.593-.36.937-.953.36-.594.36-1.297-.376-.266-.938-.422-.563-.156-1.188-.156-1.109 0-1.687.469-.563.453-.563 1.187 0 .672.5 1.094.516.422 1.313.422zm5.683-7.219h1.297v1.219h.063q.375-.625 1.11-1.047.75-.438 1.687-.438 1.093 0 1.984.563.89.562 1.39 1.562.516.985.516 2.22 0 1.25-.515 2.234-.5.984-1.39 1.546-.892.547-1.985.547-.938 0-1.688-.422-.734-.421-1.11-1.03h-.062l.063 1.124v3.531h-1.36V152.83zm4 7.188q.704 0 1.329-.391.625-.39.984-1.094.375-.703.375-1.625 0-.937-.375-1.64-.36-.704-.984-1.079-.625-.39-1.329-.39-.718 0-1.343.39-.61.375-.985 1.079-.375.703-.375 1.64 0 .922.375 1.625t.985 1.094q.625.39 1.343.39zm5.408-7.188h1.297v1.219h.063q.375-.625 1.11-1.047.75-.438 1.687-.438 1.093 0 1.984.563.89.562 1.39 1.562.516.985.516 2.22 0 1.25-.515 2.234-.5.984-1.39 1.546-.892.547-1.985.547-.938 0-1.688-.422-.734-.421-1.11-1.03h-.062l.063 1.124v3.531h-1.36V152.83zm4 7.188q.704 0 1.329-.391.625-.39.984-1.094.375-.703.375-1.625 0-.937-.375-1.64-.36-.704-.984-1.079-.625-.39-1.329-.39-.718 0-1.343.39-.61.375-.985 1.079-.375.703-.375 1.64 0 .922.375 1.625t.985 1.094q.625.39 1.343.39zM27.513 231.57q-.875 0-1.687-.36-.797-.36-1.422-1.047-.625-.703-.89-1.687l1.296-.531q.266 1.015 1 1.672.734.656 1.734.656.985 0 1.672-.531.688-.532.688-1.47 0-.796-.578-1.312-.578-.515-1.907-.968l-.734-.25q-1.203-.438-1.984-1.141-.766-.703-.766-1.953 0-.813.453-1.5.453-.703 1.25-1.125.797-.422 1.797-.422.984 0 1.719.375.734.375 1.172.906.453.516.625 1.031l-1.266.547q-.172-.593-.75-1.078-.562-.484-1.484-.484-.89 0-1.516.5-.625.5-.625 1.25 0 .672.531 1.094.532.421 1.61.796l.75.25q1.453.532 2.265 1.329.813.78.813 2.14 0 1.11-.563 1.86-.562.75-1.437 1.109-.86.344-1.766.344zm9.149 0q-1.172 0-2.11-.547-.922-.563-1.437-1.547-.516-.984-.516-2.219 0-1.172.484-2.172.485-1 1.391-1.593.906-.594 2.078-.594 1.203 0 2.078.547.875.53 1.344 1.484.484.938.484 2.156 0 .188-.03.407h-6.47q.047.937.438 1.578.406.64 1.016.968.625.313 1.296.313 1.594 0 2.422-1.484l1.14.562q-.5.984-1.421 1.563-.906.578-2.187.578zm2.343-5.188q-.031-.515-.281-1.031-.25-.516-.797-.86-.547-.359-1.375-.359-.969 0-1.64.625-.672.61-.875 1.625h4.968zm3.04-3.219h1.28v1.313h.079q.234-.672.922-1.11.687-.453 1.437-.453.563 0 .969.172v1.469q-.516-.266-1.156-.266-.594 0-1.094.344-.5.328-.797.906-.281.563-.281 1.22v4.562h-1.36v-8.157zm5.365 0h1.453l2.532 6.563h.03l2.563-6.563h1.422l-3.328 8.157h-1.375l-3.297-8.157zm9.927-1.5q-.406 0-.703-.28-.28-.298-.28-.704 0-.422.28-.687.297-.282.703-.282.407 0 .688.282.281.265.281.687 0 .406-.281.703-.281.281-.688.281zm-.671 1.5h1.359v8.157h-1.36v-8.157zm7.098 8.407q-1.187 0-2.14-.563-.938-.562-1.47-1.547-.515-.984-.515-2.218 0-1.235.516-2.22.53-1 1.468-1.562.954-.562 2.141-.562 1.328 0 2.234.625.907.61 1.282 1.64l-1.235.516q-.297-.766-.906-1.156-.594-.39-1.437-.39-.72 0-1.344.39-.625.39-1 1.11-.375.702-.375 1.609 0 .906.375 1.609t1 1.11q.625.39 1.344.39.859 0 1.484-.406.625-.407.937-1.141l1.204.516q-.407 1.015-1.329 1.64-.921.61-2.234.61zm8.594 0q-1.172 0-2.11-.547-.922-.563-1.437-1.547-.516-.984-.516-2.219 0-1.172.484-2.172.485-1 1.391-1.593.906-.594 2.078-.594 1.203 0 2.078.547.875.53 1.344 1.484.484.938.484 2.156 0 .188-.03.407h-6.47q.047.937.438 1.578.406.64 1.016.968.625.313 1.296.313 1.594 0 2.422-1.484l1.141.562q-.5.984-1.422 1.563-.906.578-2.187.578zm2.343-5.188q-.03-.515-.28-1.031-.25-.516-.798-.86-.547-.359-1.375-.359-.969 0-1.64.625-.672.61-.875 1.625H74.7zm5.963 5.188q-1.312 0-2.203-.61-.875-.61-1.234-1.578l1.203-.547q.312.735.906 1.14.61.407 1.328.407.766 0 1.313-.312.547-.313.547-.891 0-.516-.438-.828-.437-.313-1.36-.531l-1-.266q-.968-.234-1.593-.812-.625-.579-.625-1.485 0-.703.422-1.234.422-.547 1.125-.828.703-.297 1.531-.297 1.063 0 1.906.469.844.468 1.188 1.296l-1.172.547q-.547-1.093-1.937-1.093-.672 0-1.188.312-.5.313-.5.797 0 .453.344.734.36.266 1.062.453l1.188.297q1.203.313 1.812.907.61.593.61 1.468 0 .75-.438 1.313-.437.562-1.172.875-.734.297-1.625.297zM24.31 290.2h3.86q.953 0 1.765.437.828.422 1.313 1.203.484.766.484 1.75 0 .97-.484 1.75-.485.782-1.313 1.22-.812.421-1.766.421h-2.5v4.672H24.31V290.2zm3.89 5.484q.641 0 1.126-.297.484-.312.75-.78.281-.485.281-1.017 0-.53-.281-1-.266-.484-.75-.78-.485-.313-1.125-.313h-2.532v4.187h2.532zm8.126 6.219q-1.172 0-2.11-.547-.922-.562-1.437-1.547-.516-.984-.516-2.219 0-1.171.484-2.171.485-1 1.391-1.594.906-.594 2.078-.594 1.203 0 2.078.547.875.531 1.344 1.484.484.938.484 2.157 0 .187-.03.406h-6.47q.047.937.438 1.578.406.64 1.016.969.625.312 1.296.312 1.594 0 2.422-1.484l1.14.562q-.5.985-1.421 1.563-.906.578-2.187.578zm2.343-5.188q-.031-.515-.281-1.03-.25-.516-.797-.86-.547-.36-1.375-.36-.969 0-1.64.625-.672.61-.875 1.625h4.968zm3.04-3.218h1.28v1.312h.079q.234-.672.922-1.11.687-.452 1.437-.452.563 0 .969.172v1.468q-.516-.265-1.156-.265-.594 0-1.094.343-.5.329-.797.907-.281.562-.281 1.218v4.563h-1.36v-8.156zm9.207 8.406q-1.187 0-2.14-.563-.938-.562-1.47-1.546-.515-.985-.515-2.22 0-1.234.516-2.218.53-1 1.468-1.562.954-.563 2.141-.563 1.328 0 2.234.625.907.61 1.282 1.64l-1.235.516q-.297-.765-.906-1.156-.594-.39-1.437-.39-.72 0-1.344.39-.625.39-1 1.11-.375.703-.375 1.609t.375 1.61q.375.702 1 1.109.625.39 1.344.39.859 0 1.484-.406t.937-1.14l1.204.515q-.407 1.016-1.329 1.64-.921.61-2.234.61zm8.594 0q-1.172 0-2.11-.547-.922-.562-1.437-1.547-.516-.984-.516-2.219 0-1.171.484-2.171.485-1 1.391-1.594.906-.594 2.078-.594 1.203 0 2.078.547.875.531 1.344 1.484.484.938.484 2.157 0 .187-.03.406h-6.47q.047.937.438 1.578.406.64 1.016.969.625.312 1.296.312 1.594 0 2.422-1.484l1.14.562q-.5.985-1.42 1.563-.907.578-2.188.578zm2.343-5.188q-.03-.515-.28-1.03-.25-.516-.798-.86-.547-.36-1.375-.36-.969 0-1.64.625-.672.61-.875 1.625h4.968zm2.961-3.218h1.297v1.218h.063q.375-.625 1.11-1.046.75-.438 1.687-.438 1.093 0 1.984.563.89.562 1.39 1.562.516.984.516 2.219 0 1.25-.515 2.234-.5.985-1.39 1.547-.892.547-1.985.547-.938 0-1.688-.422-.734-.422-1.11-1.031h-.062l.063 1.125v3.531h-1.36v-11.61zm4 7.187q.704 0 1.329-.39.625-.391.984-1.094.375-.703.375-1.625 0-.938-.375-1.64-.36-.704-.984-1.079-.625-.39-1.329-.39-.718 0-1.343.39-.61.375-.985 1.078-.375.703-.375 1.64 0 .923.375 1.626.375.703.985 1.094.625.39 1.343.39zm8.452 1.094q-.5 0-.922-.156-.422-.157-.703-.438-.641-.61-.641-1.672v-4.78h-1.422v-1.235H75v-2.313h1.36v2.313h2v1.234h-2v4.438q0 .671.25 1 .312.343.89.343.484 0 .89-.265v1.328q-.234.11-.484.156-.25.047-.64.047zm3.607-9.781q-.406 0-.703-.282-.28-.296-.28-.703 0-.422.28-.687.297-.281.703-.281.407 0 .688.28.281.266.281.688 0 .407-.281.703-.281.282-.688.282zm-.671 1.5h1.359v8.156h-1.36v-8.156zm7.631 8.406q-.937 0-1.687-.422-.735-.422-1.094-1.031h-.078v1.203h-1.281V290.2h1.359v3.375l-.078 1.14h.078q.36-.625 1.094-1.046.75-.438 1.687-.438 1.094 0 1.985.563.89.562 1.406 1.562.516.984.516 2.219 0 1.25-.516 2.234-.516.985-1.406 1.547-.891.547-1.985.547zm-.14-1.219q.703 0 1.312-.39.625-.391 1-1.094.375-.703.375-1.625 0-.938-.375-1.64-.375-.704-1-1.079-.61-.39-1.312-.39-.735 0-1.344.39-.61.375-1 1.078-.375.703-.375 1.64 0 .923.375 1.626.39.703 1 1.094.61.39 1.344.39zm5.552-10.484h1.359v11.453h-1.36V290.2zm6.92 11.703q-1.171 0-2.109-.547-.922-.562-1.437-1.547-.516-.984-.516-2.219 0-1.171.485-2.171.484-1 1.39-1.594.906-.594 2.078-.594 1.203 0 2.078.547.875.531 1.344 1.484.485.938.485 2.157 0 .187-.032.406h-6.468q.046.937.437 1.578.406.64 1.016.969.625.312 1.297.312 1.593 0 2.421-1.484l1.141.562q-.5.985-1.422 1.563-.906.578-2.187.578zm2.344-5.188q-.03-.515-.28-1.03-.25-.516-.798-.86-.547-.36-1.375-.36-.968 0-1.64.625-.672.61-.875 1.625h4.968zm2.024 4.938zm7.321.25q-.89 0-1.593-.344-.703-.36-1.094-.969-.375-.625-.375-1.406 0-1.297.969-2.015.984-.735 2.468-.735.735 0 1.36.172.64.156.969.36v-.5q0-.907-.641-1.454-.625-.562-1.61-.562-.671 0-1.265.297-.578.297-.906.828l-1.032-.766q.485-.734 1.329-1.156.859-.422 1.875-.422 1.671 0 2.609.875.937.875.937 2.375v5.172h-1.296v-1.172h-.063q-.344.594-1.047 1.016-.703.406-1.594.406zm.141-1.188q.688 0 1.266-.343.593-.36.937-.953.36-.594.36-1.297-.375-.266-.938-.422-.562-.156-1.187-.156-1.11 0-1.688.468-.562.453-.562 1.188 0 .672.5 1.094.515.421 1.312.421zm5.684-7.218h1.296v1.218h.063q.375-.625 1.11-1.046.75-.438 1.687-.438 1.094 0 1.984.563.89.562 1.39 1.562.516.984.516 2.219 0 1.25-.515 2.234-.5.985-1.39 1.547-.891.547-1.985.547-.938 0-1.688-.422-.734-.422-1.11-1.031h-.062l.063 1.125v3.531h-1.36v-11.61zm4 7.187q.703 0 1.328-.39.625-.391.984-1.094.375-.703.375-1.625 0-.938-.375-1.64-.36-.704-.984-1.079-.625-.39-1.328-.39-.72 0-1.344.39-.61.375-.985 1.078-.375.703-.375 1.64 0 .923.375 1.626.375.703.985 1.094.625.39 1.344.39zm5.408-7.187h1.296v1.218h.063q.375-.625 1.11-1.046.75-.438 1.687-.438 1.094 0 1.984.563.89.562 1.39 1.562.516.984.516 2.219 0 1.25-.515 2.234-.5.985-1.39 1.547-.891.547-1.985.547-.938 0-1.688-.422-.734-.422-1.109-1.031h-.063l.063 1.125v3.531h-1.36v-11.61zm4 7.187q.703 0 1.328-.39.625-.391.984-1.094.375-.703.375-1.625 0-.938-.375-1.64-.36-.704-.984-1.079-.625-.39-1.328-.39-.72 0-1.344.39-.61.375-.985 1.078-.375.703-.375 1.64 0 .923.375 1.626.375.703.985 1.094.625.39 1.344.39zm8.41 1.219q-1.313 0-2.204-.61-.875-.609-1.234-1.578l1.203-.546q.313.734.906 1.14.61.406 1.328.406.766 0 1.313-.312.547-.313.547-.89 0-.516-.438-.829-.437-.312-1.359-.531l-1-.266q-.969-.234-1.594-.812-.625-.578-.625-1.485 0-.703.422-1.234.422-.547 1.125-.828.703-.297 1.531-.297 1.063 0 1.907.469.843.469 1.187 1.297l-1.172.547q-.547-1.094-1.937-1.094-.672 0-1.188.312-.5.313-.5.797 0 .453.344.735.36.265 1.062.453l1.188.297q1.203.312 1.812.906.61.594.61 1.469 0 .75-.438 1.312-.437.563-1.172.875-.734.297-1.625.297zM24.31 344.765h6.625v1.297H25.67v3.922h4.75v1.281h-4.75v4.953h-1.36v-11.453zm11.5 11.703q-1.203 0-2.171-.562-.953-.578-1.485-1.563-.531-1-.531-2.203 0-1.203.531-2.187.532-1 1.485-1.578.968-.579 2.172-.579 1.203 0 2.156.579.969.578 1.5 1.578.531.984.531 2.187 0 1.203-.531 2.203-.531.985-1.5 1.563-.953.562-2.156.562zm0-1.218q.75 0 1.391-.375.656-.391 1.047-1.094.39-.703.39-1.64 0-.954-.39-1.657-.39-.703-1.047-1.078-.64-.375-1.39-.375-.75 0-1.407.375-.656.375-1.047 1.078-.39.703-.39 1.656 0 .938.39 1.64.391.704 1.047 1.095.657.375 1.407.375zm5.627-7.188h1.28v1.313h.079q.234-.672.922-1.11.687-.453 1.437-.453.563 0 .969.172v1.469q-.516-.266-1.156-.266-.594 0-1.094.344-.5.328-.797.906-.281.563-.281 1.219v4.562h-1.36v-8.156zm9.145 8.406q-1.172 0-2.11-.547-.922-.562-1.437-1.546-.516-.985-.516-2.22 0-1.171.484-2.171.485-1 1.391-1.594.906-.594 2.078-.594 1.203 0 2.078.547.875.532 1.344 1.485.484.937.484 2.156 0 .187-.03.406h-6.47q.047.938.438 1.578.406.64 1.016.969.625.313 1.296.313 1.594 0 2.422-1.485l1.14.563q-.5.984-1.42 1.562-.907.578-2.188.578zm2.343-5.187q-.03-.516-.28-1.031-.25-.516-.798-.86-.547-.36-1.375-.36-.969 0-1.64.626-.672.61-.875 1.625h4.968zm6.698 8.656q-1.438 0-2.375-.672-.938-.672-1.266-1.625l1.25-.531q.266.703.89 1.14.641.454 1.5.454 1.266 0 1.954-.735.703-.734.703-2.093v-.907h-.063q-.406.625-1.14 1.016-.719.39-1.64.39-1.063 0-1.938-.53-.875-.548-1.39-1.516-.5-.985-.5-2.235 0-1.234.5-2.218.515-.985 1.39-1.532.875-.547 1.937-.547.922 0 1.64.407.735.39 1.141 1.03h.063v-1.171h1.297v7.844q0 1.953-1.094 2.984-1.078 1.047-2.86 1.047zm0-4.797q.734 0 1.328-.36.61-.374.969-1.062.359-.687.359-1.625 0-.968-.36-1.656-.359-.687-.968-1.047-.594-.36-1.328-.36-.735 0-1.344.376-.61.36-.969 1.047-.36.687-.36 1.64 0 .938.36 1.64.36.688.969 1.048.61.36 1.344.36zm5.974-7.078h1.28v1.313h.079q.234-.672.922-1.11.687-.453 1.437-.453.563 0 .97.172v1.469q-.517-.266-1.157-.266-.594 0-1.094.344-.5.328-.797.906-.281.563-.281 1.219v4.562h-1.36v-8.156zm9.27 8.406q-1.204 0-2.172-.562-.953-.578-1.485-1.563-.53-1-.53-2.203 0-1.203.53-2.187.532-1 1.485-1.578.968-.579 2.172-.579 1.203 0 2.156.579.969.578 1.5 1.578.531.984.531 2.187 0 1.203-.531 2.203-.531.985-1.5 1.563-.953.562-2.156.562zm0-1.218q.75 0 1.39-.375.656-.391 1.047-1.094.39-.703.39-1.64 0-.954-.39-1.657-.39-.703-1.047-1.078-.64-.375-1.39-.375-.75 0-1.407.375-.656.375-1.047 1.078-.39.703-.39 1.656 0 .938.39 1.64.391.704 1.047 1.095.657.375 1.407.375zm8.659 1.218q-1.469 0-2.25-.86-.781-.858-.781-2.421v-5.125h1.359v4.922q0 1.172.531 1.719.531.547 1.422.547.688 0 1.219-.375.547-.375.844-.954.296-.593.296-1.25v-4.609h1.36v8.156h-1.297v-1.187h-.063q-.343.61-1.078 1.031-.734.406-1.562.406zm6.023-8.406h1.28v1.203h.079q.328-.61 1.063-1.031.734-.438 1.578-.438 1.468 0 2.234.86.781.86.781 2.328v5.234h-1.36v-5.031q0-1.125-.546-1.64-.547-.516-1.484-.516-.657 0-1.188.375-.515.36-.797.969-.281.593-.281 1.25v4.593h-1.36v-8.156zm12.444 8.406q-1.109 0-2-.547-.89-.562-1.406-1.546-.5-.985-.5-2.235 0-1.234.5-2.219.516-1 1.406-1.562.891-.563 2-.563.922 0 1.657.438.734.422 1.125 1.047h.062l-.062-1.14v-3.376h1.359v11.453h-1.297v-1.203h-.062q-.391.61-1.125 1.031-.735.422-1.657.422zm.141-1.218q.719 0 1.328-.391.625-.39 1-1.094.375-.703.375-1.625 0-.937-.375-1.64-.375-.704-1-1.079-.61-.39-1.328-.39-.703 0-1.328.39-.625.375-1 1.094-.375.719-.375 1.625t.375 1.625q.375.703 1 1.094.625.39 1.328.39zm5.007.968zm7.321.25q-.89 0-1.593-.343-.703-.36-1.094-.97-.375-.624-.375-1.405 0-1.297.969-2.016.984-.734 2.468-.734.735 0 1.36.171.64.157.969.36v-.5q0-.906-.641-1.453-.625-.563-1.61-.563-.671 0-1.265.297-.578.297-.906.828l-1.032-.765q.485-.735 1.329-1.157.859-.422 1.875-.422 1.671 0 2.609.875.937.875.937 2.375v5.172h-1.296v-1.172h-.063q-.344.594-1.047 1.016-.703.406-1.594.406zm.141-1.187q.688 0 1.266-.344.593-.36.937-.953.36-.594.36-1.297-.375-.266-.938-.422-.562-.156-1.187-.156-1.11 0-1.688.469-.562.453-.562 1.187 0 .672.5 1.094.515.422 1.312.422zm5.684-7.219h1.296v1.219h.063q.375-.625 1.11-1.047.75-.438 1.687-.438 1.094 0 1.984.563.89.562 1.39 1.562.516.985.516 2.22 0 1.25-.515 2.234-.5.984-1.39 1.546-.891.547-1.985.547-.938 0-1.688-.422-.734-.421-1.109-1.03h-.063l.063 1.124v3.531h-1.36v-11.609zm4 7.188q.703 0 1.328-.391.625-.39.984-1.094.375-.703.375-1.625 0-.937-.375-1.64-.36-.704-.984-1.079-.625-.39-1.328-.39-.72 0-1.344.39-.61.375-.985 1.079-.375.703-.375 1.64 0 .922.375 1.625t.985 1.094q.625.39 1.344.39zm5.408-7.188h1.296v1.219h.063q.375-.625 1.11-1.047.75-.438 1.687-.438 1.094 0 1.984.563.89.562 1.39 1.562.516.985.516 2.22 0 1.25-.515 2.234-.5.984-1.39 1.546-.891.547-1.985.547-.938 0-1.688-.422-.734-.421-1.109-1.03h-.063l.063 1.124v3.531h-1.36v-11.609zm4 7.188q.703 0 1.328-.391.625-.39.984-1.094.375-.703.375-1.625 0-.937-.375-1.64-.36-.704-.984-1.079-.625-.39-1.328-.39-.72 0-1.344.39-.61.375-.985 1.079-.375.703-.375 1.64 0 .922.375 1.625t.985 1.094q.625.39 1.344.39zM24.31 415.098h3.86q.953 0 1.765.438.828.422 1.313 1.203.484.766.484 1.75 0 .969-.484 1.75-.485.781-1.313 1.219-.812.422-1.766.422h-2.5v4.672H24.31v-11.454zm3.89 5.485q.641 0 1.126-.297.484-.313.75-.781.281-.485.281-1.016t-.281-1q-.266-.484-.75-.781-.485-.313-1.125-.313h-2.532v4.188h2.532zm8.126 6.219q-1.172 0-2.11-.547-.922-.563-1.437-1.547-.516-.985-.516-2.219 0-1.172.484-2.172.485-1 1.391-1.594.906-.593 2.078-.593 1.203 0 2.078.547.875.53 1.344 1.484.484.937.484 2.156 0 .188-.03.406h-6.47q.047.938.438 1.579.406.64 1.016.968.625.313 1.296.313 1.594 0 2.422-1.485l1.14.563q-.5.984-1.421 1.562-.906.579-2.187.579zm2.343-5.188q-.031-.516-.281-1.031-.25-.516-.797-.86-.547-.359-1.375-.359-.969 0-1.64.625-.672.61-.875 1.625h4.968zm3.04-3.219h1.28v1.313h.079q.234-.672.922-1.11.687-.453 1.437-.453.563 0 .969.172v1.469q-.516-.266-1.156-.266-.594 0-1.094.344-.5.328-.797.906-.281.563-.281 1.22v4.562h-1.36v-8.157zm8.523 8.407q-1.312 0-2.203-.61-.875-.61-1.234-1.578l1.203-.547q.312.735.906 1.14.61.407 1.328.407.766 0 1.313-.312.547-.313.547-.891 0-.516-.438-.828-.437-.313-1.36-.531l-1-.266q-.968-.234-1.593-.813-.625-.578-.625-1.484 0-.703.422-1.234.422-.547 1.125-.828.703-.297 1.531-.297 1.063 0 1.906.468.844.47 1.188 1.297l-1.172.547q-.547-1.094-1.937-1.094-.672 0-1.188.313-.5.312-.5.797 0 .453.344.734.36.266 1.062.453l1.188.297q1.203.313 1.812.906.61.594.61 1.47 0 .75-.438 1.312-.437.562-1.172.875-.734.297-1.625.297zm5.441-9.907q-.406 0-.703-.28-.281-.298-.281-.704 0-.422.281-.688.297-.28.703-.28.407 0 .688.28.281.266.281.688 0 .406-.281.703-.281.281-.688.281zm-.671 1.5h1.359v8.157H55v-8.157zm6.334 8.407q-1.312 0-2.203-.61-.875-.61-1.234-1.578l1.203-.547q.312.735.906 1.14.61.407 1.328.407.766 0 1.313-.312.547-.313.547-.891 0-.516-.438-.828-.437-.313-1.36-.531l-1-.266q-.968-.234-1.593-.813-.625-.578-.625-1.484 0-.703.422-1.234.422-.547 1.125-.828.703-.297 1.531-.297 1.063 0 1.906.468.844.47 1.188 1.297l-1.172.547q-.547-1.094-1.937-1.094-.672 0-1.188.313-.5.312-.5.797 0 .453.344.734.36.266 1.062.453l1.188.297q1.203.313 1.812.906.61.594.61 1.47 0 .75-.438 1.312-.437.562-1.172.875-.734.297-1.625.297zm7.77-.125q-.5 0-.922-.157-.422-.156-.703-.437-.641-.61-.641-1.672v-4.781h-1.422v-1.235h1.422v-2.312h1.36v2.312h2v1.235h-2v4.437q0 .672.25 1 .312.344.89.344.484 0 .89-.266v1.328q-.234.11-.484.157-.25.047-.64.047zm6.004.125q-1.172 0-2.11-.547-.922-.563-1.437-1.547-.516-.985-.516-2.219 0-1.172.484-2.172.485-1 1.391-1.594.906-.593 2.078-.593 1.203 0 2.078.547.875.53 1.344 1.484.484.937.484 2.156 0 .188-.03.406h-6.47q.047.938.438 1.579.406.64 1.016.968.625.313 1.296.313 1.594 0 2.422-1.485l1.14.563q-.5.984-1.42 1.562-.907.579-2.188.579zm2.343-5.188q-.03-.516-.28-1.031-.25-.516-.798-.86-.547-.359-1.375-.359-.969 0-1.64.625-.672.61-.875 1.625h4.968zm3.04-3.219h1.28v1.203h.079q.328-.609 1.062-1.03.735-.438 1.579-.438 1.468 0 2.234.86.781.858.781 2.327v5.235h-1.36v-5.032q0-1.125-.546-1.64-.547-.516-1.484-.516-.657 0-1.188.375-.516.36-.797.969-.281.594-.281 1.25v4.594h-1.36v-8.157zm11.7 8.282q-.5 0-.921-.157-.422-.156-.703-.437-.641-.61-.641-1.672v-4.781h-1.422v-1.235h1.422v-2.312h1.36v2.312h2v1.235h-2v4.437q0 .672.25 1 .312.344.89.344.484 0 .89-.266v1.328q-.234.11-.484.157-.25.047-.64.047zm-64.68 53.718q-.875 0-1.687-.36-.797-.359-1.422-1.046-.625-.704-.89-1.688l1.296-.531q.266 1.015 1 1.672.734.656 1.734.656.985 0 1.672-.531.688-.532.688-1.47 0-.796-.578-1.312-.578-.515-1.907-.968l-.734-.25q-1.203-.438-1.984-1.141-.766-.703-.766-1.953 0-.813.453-1.5.453-.703 1.25-1.125.797-.422 1.797-.422.984 0 1.719.375.734.375 1.172.906.453.516.625 1.032l-1.266.546q-.172-.593-.75-1.078-.562-.484-1.484-.484-.89 0-1.516.5-.625.5-.625 1.25 0 .672.531 1.094.532.422 1.61.797l.75.25q1.453.53 2.265 1.328.813.78.813 2.14 0 1.11-.563 1.86-.562.75-1.437 1.109-.86.344-1.766.344zm7.688-.766l-3.375-7.64h1.469l2.562 6.062h.031l2.47-6.062h1.468l-5.031 11.609h-1.407l1.813-3.969zm8.455.766q-1.312 0-2.203-.61-.875-.609-1.234-1.578l1.203-.547q.312.735.906 1.141.61.406 1.328.406.766 0 1.313-.312.547-.313.547-.89 0-.516-.438-.829-.437-.312-1.36-.531l-1-.266q-.968-.234-1.593-.812-.625-.578-.625-1.485 0-.703.422-1.234.422-.547 1.125-.828.703-.297 1.531-.297 1.063 0 1.906.469.844.468 1.188 1.297l-1.172.546q-.547-1.093-1.937-1.093-.672 0-1.188.312-.5.313-.5.797 0 .453.344.734.36.266 1.062.454l1.188.296q1.203.313 1.812.907.61.593.61 1.468 0 .75-.438 1.313-.437.562-1.172.875-.734.297-1.625.297zm7.77-.125q-.5 0-.922-.156-.422-.157-.703-.438-.641-.61-.641-1.672v-4.781h-1.422v-1.234h1.422v-2.313h1.36v2.313h2v1.234h-2v4.437q0 .672.25 1 .312.344.89.344.484 0 .89-.265v1.328q-.234.109-.484.156-.25.047-.64.047zm6.004.125q-1.172 0-2.11-.547-.922-.563-1.437-1.547-.516-.984-.516-2.219 0-1.172.484-2.172.485-1 1.391-1.593.906-.594 2.078-.594 1.203 0 2.078.547.875.531 1.344 1.484.484.938.484 2.156 0 .188-.03.407h-6.47q.047.937.438 1.578.406.64 1.016.969.625.312 1.296.312 1.594 0 2.422-1.484l1.14.562q-.5.985-1.421 1.563-.906.578-2.187.578zm2.343-5.188q-.031-.515-.281-1.031-.25-.516-.797-.86-.547-.359-1.375-.359-.969 0-1.64.625-.672.61-.875 1.625h4.968zm3.04-3.218h1.28v1.203h.079q.344-.625 1.047-1.047.703-.422 1.484-.422.906 0 1.563.437.672.438.953 1.157.437-.72 1.14-1.157.72-.437 1.657-.437 1.406 0 2.125.86.718.859.718 2.327v5.235h-1.343v-5.031q0-1.125-.47-1.641-.468-.516-1.374-.516-.61 0-1.11.36-.5.343-.78.937-.266.594-.266 1.281v4.61h-1.36v-5.016q0-1.14-.468-1.656-.47-.516-1.36-.516-.61 0-1.11.36-.5.359-.78.968-.266.594-.266 1.282v4.578h-1.36v-8.156zM24.31 507.516h1.656l5.75 9.11h.063l-.063-2.204v-6.906h1.36v11.453h-1.407l-6-9.547h-.062l.062 2.203v7.344H24.31v-11.453zm13.416 11.703q-.89 0-1.593-.344-.704-.36-1.094-.969-.375-.625-.375-1.406 0-1.297.969-2.015.984-.735 2.468-.735.735 0 1.36.172.64.156.968.36v-.5q0-.907-.64-1.454-.625-.562-1.61-.562-.671 0-1.265.297-.578.297-.906.828l-1.032-.766q.485-.734 1.328-1.156.86-.422 1.875-.422 1.672 0 2.61.875.937.875.937 2.375v5.172H40.43v-1.172h-.062q-.344.594-1.047 1.016-.703.406-1.594.406zm.14-1.188q.688 0 1.267-.343.593-.36.937-.953.36-.594.36-1.297-.376-.266-.938-.422-.563-.156-1.188-.156-1.109 0-1.687.468-.563.453-.563 1.188 0 .672.5 1.094.516.421 1.313.421zm8.728 1.063q-.5 0-.922-.156-.422-.157-.703-.438-.641-.61-.641-1.672v-4.78h-1.422v-1.235h1.422V508.5h1.36v2.313h2v1.234h-2v4.438q0 .671.25 1 .312.343.89.343.484 0 .89-.265v1.328q-.234.11-.484.156-.25.047-.64.047zm3.607-9.781q-.406 0-.703-.282-.281-.296-.281-.703 0-.422.281-.687.297-.281.703-.281.407 0 .688.28.281.266.281.688 0 .407-.281.703-.281.282-.688.282zm-.671 1.5h1.359v8.156h-1.36v-8.156zm2.584 0h1.453l2.532 6.562h.03l2.563-6.562h1.422l-3.328 8.156h-1.375l-3.297-8.156zm12.516 8.406q-1.172 0-2.11-.547-.922-.562-1.437-1.547-.516-.984-.516-2.219 0-1.171.484-2.171.485-1 1.391-1.594.906-.594 2.078-.594 1.203 0 2.078.547.875.531 1.344 1.484.484.938.484 2.157 0 .187-.03.406h-6.47q.047.937.438 1.578.406.64 1.016.969.625.312 1.296.312 1.594 0 2.422-1.484l1.14.562q-.5.985-1.42 1.563-.907.578-2.188.578zm2.343-5.188q-.03-.515-.28-1.03-.25-.516-.798-.86-.547-.36-1.375-.36-.969 0-1.64.625-.672.61-.875 1.625h4.968z"/><path d="M157.594 341.727h49.331v49.33h-49.33zm-2.834-193.429h55v54h-55zm-2.499-72.699h60v60h-60zm10.085 338.203h298v39h-298zm-4.752-198.59h215v59h-215zm-2.833-199.897h298v51h-298zm7.584 267.999H344.87v49.331H162.345zm-6.272 210.628h433.953v32.598H156.073z"/><path fill="#000" d="M169.886 507.522v1.594h-.922v-1.594h.922zm.016 3.156v5.734h2.421q.22 0 .313.079.094.078.094.218 0 .141-.094.235-.094.078-.313.078h-5.453q-.218 0-.312-.078-.094-.094-.094-.235 0-.14.094-.218.094-.079.312-.079h2.422v-5.109h-1.797q-.218 0-.328-.078-.094-.094-.094-.234 0-.141.094-.22.094-.093.328-.093h2.407zm6.689 0v.938q.64-.657 1.156-.907.531-.25 1.172-.25.703 0 1.281.297.422.219.75.735.328.5.328 1.046v3.875h.531q.22 0 .313.079.094.078.094.218 0 .141-.094.235-.094.078-.313.078h-1.656q-.219 0-.328-.078-.094-.094-.094-.235 0-.14.094-.218.11-.079.328-.079h.516v-3.78q0-.657-.485-1.094-.468-.454-1.265-.454-.61 0-1.063.25-.437.235-1.265 1.22v3.858h.687q.219 0 .313.079.109.078.109.218 0 .141-.11.235-.093.078-.312.078h-2q-.219 0-.312-.078-.094-.094-.094-.235 0-.14.094-.218.093-.079.312-.079h.688v-5.109h-.516q-.219 0-.313-.078-.093-.094-.093-.234 0-.141.093-.22.094-.093.313-.093h1.14zm11.298-3.156v1.594h-.922v-1.594h.922zm.016 3.156v5.734h2.421q.22 0 .313.079.094.078.094.218 0 .141-.094.235-.094.078-.313.078h-5.453q-.218 0-.312-.078-.094-.094-.094-.235 0-.14.094-.218.094-.079.312-.079h2.422v-5.109h-1.797q-.218 0-.328-.078-.094-.094-.094-.234 0-.141.094-.22.094-.093.328-.093h2.407zm7.407 0h3.344q.219 0 .313.094.093.078.093.219 0 .14-.093.234-.094.078-.313.078h-3.344v4.094q0 .531.422.89.438.36 1.266.36.625 0 1.344-.188.734-.187 1.125-.422.156-.093.25-.093.109 0 .203.093.093.094.093.22 0 .109-.093.202-.235.235-1.141.516t-1.734.281q-1.078 0-1.72-.5-.64-.5-.64-1.36v-4.093h-1.125q-.218 0-.328-.078-.094-.094-.094-.234 0-.141.094-.22.11-.093.328-.093h1.125v-1.812q0-.22.094-.313.094-.094.219-.094.14 0 .219.094.093.094.093.313v1.812zm18.019 3.61v2.734h-1.438q-.218 0-.312-.078-.094-.094-.094-.235 0-.14.094-.218.094-.079.312-.079h.828v-7.953h-.828q-.218 0-.312-.093-.094-.094-.094-.235 0-.125.094-.203.094-.094.312-.094h1.438v5.672l2.61-2.203h-.313q-.22 0-.313-.078-.094-.094-.094-.234 0-.141.094-.22.094-.093.313-.093h1.968q.235 0 .329.094.093.078.093.219 0 .14-.093.234-.094.078-.329.078h-.703l-2.406 2 3.047 3.11h.703q.234 0 .328.078t.094.218q0 .141-.094.235-.094.078-.328.078h-1.984q-.22 0-.328-.078-.094-.094-.094-.235 0-.14.094-.218.109-.079.328-.079h.422l-2.641-2.718-.703.593zm12.283-3.204q0-.218.078-.312.093-.094.234-.094.14 0 .219.094.094.094.094.328v1.047q0 .219-.094.328-.078.094-.219.094-.125 0-.219-.078-.078-.094-.093-.282-.047-.437-.454-.718-.593-.407-1.593-.407-1.032 0-1.594.422-.438.313-.438.703 0 .438.516.72.344.218 1.328.327 1.281.125 1.781.313.72.25 1.063.703.344.453.344.984 0 .781-.75 1.39-.75.61-2.22.61-1.452 0-2.39-.734 0 .25-.031.328-.016.062-.094.125-.078.047-.172.047-.14 0-.234-.094-.078-.094-.078-.312v-1.266q0-.219.078-.313.094-.109.234-.109.125 0 .22.094.093.094.093.25 0 .344.172.562.25.36.812.594.563.219 1.375.219 1.203 0 1.782-.438.593-.453.593-.953 0-.578-.593-.922-.61-.343-1.75-.453-1.141-.125-1.641-.312-.5-.188-.781-.563-.282-.39-.282-.828 0-.781.782-1.25.78-.469 1.843-.469 1.282 0 2.079.625zm9.095 5.938h-.766l-1.36-3.953-1.343 3.953h-.766l-1.265-5.719h-.297q-.235 0-.328-.078-.094-.094-.094-.234 0-.141.094-.22.093-.093.328-.093h1.687q.22 0 .313.094.094.078.094.219 0 .14-.094.234-.094.078-.313.078h-.78l1.077 4.875 1.313-3.89h.734l1.36 3.89 1.046-4.875h-.78q-.22 0-.329-.078-.094-.094-.094-.234 0-.141.094-.22.094-.093.328-.093h1.688q.218 0 .312.094.094.078.094.219 0 .14-.094.234-.094.078-.312.078h-.297l-1.25 5.719zm8.642 0v-.89q-1.344 1.124-2.86 1.124-1.109 0-1.734-.547-.61-.562-.61-1.375 0-.89.813-1.562.828-.672 2.39-.672.423 0 .923.062.5.047 1.078.172v-1q0-.5-.469-.875t-1.406-.375q-.719 0-2.016.422-.234.063-.297.063-.109 0-.203-.078-.078-.094-.078-.22 0-.124.078-.202.094-.11.828-.297 1.141-.313 1.72-.313 1.171 0 1.812.579.656.578.656 1.296v4.078h.828q.219 0 .312.079.094.078.094.218 0 .141-.094.235-.093.078-.312.078h-1.453zm0-3.063q-.422-.125-.906-.172-.485-.062-1.016-.062-1.344 0-2.11.578-.562.422-.562 1.031 0 .547.438.938.437.375 1.265.375.797 0 1.485-.313.687-.328 1.406-1.015v-1.36zm4.923-3.28v1.124q.547-.672 1.172-1 .625-.344 1.484-.344.907 0 1.672.422.782.422 1.203 1.188.422.75.422 1.593 0 1.329-.953 2.266-.953.938-2.328.938-1.656 0-2.672-1.344v3.719h1.485q.218 0 .312.078.11.078.11.218 0 .141-.11.22-.094.093-.312.093h-2.938q-.219 0-.312-.094-.094-.078-.094-.219 0-.14.094-.218.093-.078.312-.078h.828v-7.938h-.828q-.219 0-.312-.078-.094-.094-.094-.234 0-.141.094-.22.093-.093.312-.093h1.453zm5.328 2.983q0-1.062-.781-1.812-.766-.766-1.875-.766-1.125 0-1.906.766-.766.75-.766 1.812 0 1.063.766 1.829.781.75 1.906.75 1.11 0 1.875-.75.781-.766.781-1.829zm9.002-5.828v8.578h.812q.235 0 .328.079.094.078.094.218 0 .141-.094.235-.093.078-.328.078h-1.437v-1.219q-1.063 1.453-2.719 1.453-.828 0-1.594-.437-.765-.438-1.218-1.25-.438-.828-.438-1.703 0-.875.438-1.688.453-.828 1.218-1.265.766-.454 1.61-.454 1.609 0 2.703 1.47v-3.47h-.813q-.234 0-.328-.093-.094-.094-.094-.235 0-.125.094-.203.094-.094.328-.094h1.438zm-.625 6.032q0-1.172-.797-1.97-.781-.812-1.875-.812-1.094 0-1.89.813-.798.797-.798 1.969 0 1.156.797 1.968.797.813 1.89.813 1.095 0 1.876-.813.797-.812.797-1.968zm13.628-3.188v.938q.64-.657 1.156-.907.531-.25 1.172-.25.703 0 1.281.297.422.219.75.735.328.5.328 1.046v3.875h.531q.22 0 .313.079.094.078.094.218 0 .141-.094.235-.094.078-.313.078h-1.656q-.219 0-.328-.078-.094-.094-.094-.235 0-.14.094-.218.11-.079.328-.079h.516v-3.78q0-.657-.485-1.094-.468-.454-1.265-.454-.61 0-1.063.25-.437.235-1.265 1.22v3.858h.687q.219 0 .313.079.11.078.11.218 0 .141-.11.235-.094.078-.313.078h-2q-.219 0-.312-.078-.094-.094-.094-.235 0-.14.094-.218.093-.079.312-.079h.688v-5.109h-.516q-.219 0-.312-.078-.094-.094-.094-.234 0-.141.094-.22.093-.093.312-.093h1.14zm14.314 3.313h-6.266q.156 1.203 1 1.937.844.719 2.078.719.688 0 1.438-.219.75-.234 1.234-.61.14-.109.234-.109.125 0 .204.094.093.094.093.219t-.11.234q-.358.375-1.265.688-.89.312-1.828.312-1.594 0-2.656-1.031-1.047-1.031-1.047-2.5 0-1.344.984-2.297 1-.969 2.47-.969 1.5 0 2.468.985.984.984.969 2.547zm-.625-.61q-.172-1.031-.953-1.656-.782-.64-1.86-.64t-1.86.624q-.765.625-.968 1.672h5.64zm5.032-2.703h3.344q.219 0 .313.094.093.078.093.219 0 .14-.093.234-.094.078-.313.078h-3.344v4.094q0 .531.422.89.438.36 1.266.36.625 0 1.344-.188.734-.187 1.125-.422.156-.093.25-.093.109 0 .203.093.093.094.093.22 0 .109-.093.202-.235.235-1.14.516-.907.281-1.735.281-1.078 0-1.719-.5-.64-.5-.64-1.36v-4.093h-1.126q-.218 0-.328-.078-.094-.094-.094-.234 0-.141.094-.22.11-.093.328-.093h1.125v-1.812q0-.22.094-.313.094-.094.219-.094.14 0 .219.094.093.094.093.313v1.812zm13.283-2.844v8.578h.813q.234 0 .328.079.093.078.093.218 0 .141-.093.235-.094.078-.328.078h-1.438v-1.219q-1.062 1.453-2.719 1.453-.828 0-1.593-.437-.766-.438-1.22-1.25-.437-.828-.437-1.703 0-.875.438-1.688.453-.828 1.219-1.265.765-.454 1.609-.454 1.61 0 2.703 1.47v-3.47h-.812q-.235 0-.329-.093-.093-.094-.093-.235 0-.125.093-.203.094-.094.329-.094h1.437zm-.625 6.032q0-1.172-.797-1.97-.781-.812-1.875-.812-1.094 0-1.89.813-.797.797-.797 1.969 0 1.156.797 1.968.796.813 1.89.813 1.094 0 1.875-.813.797-.812.797-1.968zm15.925-6.032v8.578h2.422q.219 0 .312.079.094.078.094.218 0 .141-.094.235-.093.078-.312.078h-5.453q-.22 0-.313-.078-.094-.094-.094-.235 0-.14.094-.218.094-.079.313-.079h2.422v-7.953h-1.782q-.218 0-.328-.093-.094-.094-.094-.235 0-.125.094-.203.11-.094.328-.094h2.39zm12.126 6.032q0 1.406-1.015 2.406-1 .984-2.422.984-1.438 0-2.438-1-1-1-1-2.39 0-1.407 1-2.407t2.438-1q1.422 0 2.422 1 1.015.985 1.015 2.407zm-.625 0q0-1.157-.828-1.97-.812-.812-1.984-.812t-2 .813q-.828.812-.828 1.969 0 1.14.828 1.968.828.813 2 .813 1.172 0 1.984-.813.828-.812.828-1.968zm8.252-2.063v-1.125h1.453q.219 0 .312.094.094.078.094.219 0 .14-.094.234-.093.078-.312.078h-.828v6.14q0 .626-.266 1.11-.172.313-.594.656-.406.344-.75.485-.328.156-.89.156h-1.75q-.219 0-.313-.094-.093-.078-.093-.219 0-.14.093-.234.094-.078.313-.078l1.765.016q.547 0 .985-.282.437-.28.719-.812.156-.313.156-.781v-1.86q-.985 1.36-2.547 1.36-1.266 0-2.188-.938-.906-.937-.906-2.266 0-1.328.906-2.265.922-.938 2.188-.938 1.562 0 2.547 1.344zm0 1.86q0-1.094-.75-1.829-.735-.75-1.766-.75-1.031 0-1.781.75-.734.75-.734 1.828 0 1.079.734 1.829.75.75 1.781.75t1.766-.75q.75-.75.75-1.829zm9.954-5.829v8.578h.813q.234 0 .328.079.094.078.094.218 0 .141-.094.235-.094.078-.328.078h-1.438v-1.219q-1.062 1.453-2.718 1.453-.828 0-1.594-.437-.766-.438-1.219-1.25-.437-.828-.437-1.703 0-.875.437-1.688.453-.828 1.219-1.265.766-.454 1.61-.454 1.609 0 2.702 1.47v-3.47h-.812q-.234 0-.328-.093-.094-.094-.094-.235 0-.125.094-.203.094-.094.328-.094h1.437zm-.625 6.032q0-1.172-.796-1.97-.782-.812-1.875-.812-1.094 0-1.891.813-.797.797-.797 1.969 0 1.156.797 1.968.797.813 1.89.813 1.094 0 1.876-.813.796-.812.796-1.968zm17.378 3.156v-.89q-1.343 1.124-2.859 1.124-1.11 0-1.734-.547-.61-.562-.61-1.375 0-.89.813-1.562.828-.672 2.39-.672.422 0 .922.062.5.047 1.078.172v-1q0-.5-.468-.875-.47-.375-1.407-.375-.718 0-2.015.422-.235.063-.297.063-.11 0-.203-.078-.078-.094-.078-.22 0-.124.078-.202.093-.11.828-.297 1.14-.313 1.719-.313 1.171 0 1.812.579.656.578.656 1.296v4.078h.828q.22 0 .313.079.094.078.094.218 0 .141-.094.235-.094.078-.313.078h-1.453zm0-3.063q-.422-.125-.906-.172-.484-.062-1.016-.062-1.343 0-2.109.578-.562.422-.562 1.031 0 .547.437.938.438.375 1.266.375.797 0 1.484-.313.688-.328 1.406-1.015v-1.36zm10.252-6.125v8.578h.812q.235 0 .328.079.094.078.094.218 0 .141-.094.235-.093.078-.328.078h-1.437v-1.219q-1.063 1.453-2.719 1.453-.828 0-1.594-.437-.765-.438-1.218-1.25-.438-.828-.438-1.703 0-.875.438-1.688.453-.828 1.218-1.265.766-.454 1.61-.454 1.61 0 2.703 1.47v-3.47h-.813q-.234 0-.328-.093-.094-.094-.094-.235 0-.125.094-.203.094-.094.328-.094h1.438zm-.625 6.032q0-1.172-.797-1.97-.781-.812-1.875-.812-1.094 0-1.89.813-.798.797-.798 1.969 0 1.156.797 1.968.797.813 1.89.813 1.095 0 1.876-.813.797-.812.797-1.968zm4.298-6.032v4.079q1.11-1.454 2.688-1.454 1.343 0 2.297.985.968.968.968 2.39 0 1.438-.968 2.438-.97.984-2.297.984-1.61 0-2.688-1.437v1.203h-1.453q-.219 0-.312-.078-.094-.094-.094-.235 0-.14.094-.218.093-.079.312-.079h.828v-7.953h-.828q-.219 0-.312-.093-.094-.094-.094-.235 0-.125.094-.203.093-.094.312-.094h1.453zm5.328 6.032q0-1.172-.797-1.97-.796-.812-1.859-.812-1.078 0-1.875.813-.797.797-.797 1.969 0 1.156.797 1.968.797.813 1.875.813 1.063 0 1.86-.813.796-.812.796-1.968zm9.002-6.032v8.578h.812q.235 0 .328.079.094.078.094.218 0 .141-.094.235-.093.078-.328.078h-1.437v-1.219q-1.063 1.453-2.719 1.453-.828 0-1.594-.437-.765-.438-1.219-1.25-.437-.828-.437-1.703 0-.875.437-1.688.454-.828 1.22-1.265.765-.454 1.609-.454 1.609 0 2.703 1.47v-3.47h-.813q-.234 0-.328-.093-.094-.094-.094-.235 0-.125.094-.203.094-.094.328-.094h1.438zm-.625 6.032q0-1.172-.797-1.97-.781-.812-1.875-.812-1.094 0-1.89.813-.798.797-.798 1.969 0 1.156.797 1.968.797.813 1.89.813 1.095 0 1.876-.813.797-.812.797-1.968zm15.925-6.344v1.594h-.922v-1.594h.922zm.015 3.156v5.734h2.422q.219 0 .313.079.093.078.093.218 0 .141-.093.235-.094.078-.313.078h-5.453q-.219 0-.313-.078-.093-.094-.093-.235 0-.14.093-.218.094-.079.313-.079h2.422v-5.109h-1.797q-.219 0-.328-.078-.094-.094-.094-.234 0-.141.094-.22.094-.093.328-.093h2.406zm6.69 0v.938q.64-.657 1.155-.907.532-.25 1.172-.25.703 0 1.282.297.421.219.75.735.328.5.328 1.046v3.875h.53q.22 0 .313.079.094.078.094.218 0 .141-.094.235-.093.078-.312.078h-1.656q-.22 0-.328-.078-.094-.094-.094-.235 0-.14.094-.218.109-.079.328-.079h.515v-3.78q0-.657-.484-1.094-.469-.454-1.266-.454-.61 0-1.062.25-.438.235-1.266 1.22v3.858h.688q.218 0 .312.079.11.078.11.218 0 .141-.11.235-.094.078-.312.078h-2q-.22 0-.313-.078-.094-.094-.094-.235 0-.14.094-.218.094-.079.313-.079h.687v-5.109h-.515q-.22 0-.313-.078-.094-.094-.094-.234 0-.141.094-.22.094-.093.313-.093h1.14zm13.016.406q0-.218.078-.312.094-.094.235-.094.14 0 .218.094.094.094.094.328v1.047q0 .219-.094.328-.078.094-.218.094-.125 0-.219-.078-.078-.094-.094-.282-.047-.437-.453-.718-.594-.407-1.594-.407-1.03 0-1.593.422-.438.313-.438.703 0 .438.516.72.343.218 1.328.327 1.281.125 1.781.313.719.25 1.063.703.343.453.343.984 0 .781-.75 1.39-.75.61-2.218.61-1.454 0-2.391-.734 0 .25-.031.328-.016.062-.094.125-.078.047-.172.047-.14 0-.234-.094-.078-.094-.078-.312v-1.266q0-.219.078-.313.093-.109.234-.109.125 0 .219.094t.094.25q0 .344.171.562.25.36.813.594.562.219 1.375.219 1.203 0 1.781-.438.594-.453.594-.953 0-.578-.594-.922-.61-.343-1.75-.453-1.14-.125-1.64-.312-.5-.188-.782-.563-.28-.39-.28-.828 0-.781.78-1.25.782-.469 1.844-.469 1.281 0 2.078.625zm5.705-.406h3.344q.218 0 .312.094.094.078.094.219 0 .14-.094.234-.094.078-.312.078h-3.344v4.094q0 .531.422.89.437.36 1.265.36.625 0 1.344-.188.734-.187 1.125-.422.156-.093.25-.093.11 0 .203.093.094.094.094.22 0 .109-.094.202-.234.235-1.14.516-.907.281-1.735.281-1.078 0-1.719-.5-.64-.5-.64-1.36v-4.093h-1.125q-.219 0-.328-.078-.094-.094-.094-.234 0-.141.094-.22.11-.093.328-.093h1.125v-1.812q0-.22.094-.313.093-.094.218-.094.14 0 .22.094.093.094.093.313v1.812zm12.033 6.344v-.89q-1.344 1.124-2.86 1.124-1.11 0-1.734-.547-.61-.562-.61-1.375 0-.89.813-1.562.828-.672 2.39-.672.422 0 .922.062.5.047 1.079.172v-1q0-.5-.47-.875-.468-.375-1.405-.375-.72 0-2.016.422-.234.063-.297.063-.11 0-.203-.078-.078-.094-.078-.22 0-.124.078-.202.094-.11.828-.297 1.14-.313 1.719-.313 1.172 0 1.812.579.657.578.657 1.296v4.078h.828q.218 0 .312.079.094.078.094.218 0 .141-.094.235-.094.078-.312.078h-1.453zm0-3.063q-.422-.125-.907-.172-.484-.062-1.015-.062-1.344 0-2.11.578-.562.422-.562 1.031 0 .547.437.938.438.375 1.266.375.797 0 1.484-.313.688-.328 1.407-1.015v-1.36zm7.548-6.125v8.578h2.422q.218 0 .312.079.094.078.094.218 0 .141-.094.235-.094.078-.312.078h-5.453q-.22 0-.313-.078-.094-.094-.094-.235 0-.14.094-.218.094-.079.313-.079h2.421v-7.953h-1.78q-.22 0-.329-.093-.094-.094-.094-.235 0-.125.094-.203.11-.094.328-.094h2.39zm9.001 0v8.578h2.422q.219 0 .313.079.093.078.093.218 0 .141-.093.235-.094.078-.313.078h-5.453q-.219 0-.312-.078-.094-.094-.094-.235 0-.14.094-.218.093-.079.312-.079h2.422v-7.953h-1.781q-.219 0-.328-.093-.094-.094-.094-.235 0-.125.094-.203.109-.094.328-.094h2.39zm11.705 0v8.578h.812q.235 0 .329.079.093.078.093.218 0 .141-.093.235-.094.078-.329.078h-1.437v-1.219q-1.063 1.453-2.719 1.453-.828 0-1.594-.437-.765-.438-1.218-1.25-.438-.828-.438-1.703 0-.875.438-1.688.453-.828 1.218-1.265.766-.454 1.61-.454 1.61 0 2.703 1.47v-3.47h-.813q-.234 0-.328-.093-.093-.094-.093-.235 0-.125.093-.203.094-.094.328-.094h1.438zm-.625 6.032q0-1.172-.797-1.97-.781-.812-1.875-.812-1.094 0-1.89.813-.797.797-.797 1.969 0 1.156.796 1.968.797.813 1.891.813 1.094 0 1.875-.813.797-.812.797-1.968z"/><path d="M156.073 461.854h433.953v32.598H156.073z"/><path fill="#000" d="M171.605 478.996q0-.219.078-.312.094-.094.234-.094t.219.094q.094.093.094.328v1.047q0 .218-.094.328-.078.093-.219.093-.125 0-.219-.078-.078-.093-.093-.28-.047-.438-.453-.72-.594-.406-1.594-.406-1.031 0-1.594.422-.437.312-.437.703 0 .438.515.719.344.219 1.328.328 1.282.125 1.782.312.718.25 1.062.704.344.453.344.984 0 .781-.75 1.39-.75.61-2.219.61-1.453 0-2.39-.734 0 .25-.032.328-.015.062-.094.125-.078.047-.171.047-.141 0-.235-.094-.078-.094-.078-.313v-1.265q0-.219.078-.313.094-.11.235-.11.125 0 .218.095.094.093.094.25 0 .343.172.562.25.36.812.594.563.219 1.375.219 1.204 0 1.782-.438.593-.453.593-.953 0-.578-.593-.922-.61-.344-1.75-.453-1.14-.125-1.64-.313-.5-.187-.782-.562-.281-.39-.281-.828 0-.781.78-1.25.782-.469 1.845-.469 1.28 0 2.078.625zm7.017 5.938l-2.86-5.72h-.187q-.219 0-.313-.077-.093-.094-.093-.235 0-.093.047-.172.046-.078.125-.109.078-.031.234-.031h1.687q.22 0 .313.094.094.078.094.218 0 .141-.094.235-.094.078-.313.078h-.828l2.516 5.047 2.469-5.047h-.828q-.22 0-.313-.078-.094-.094-.094-.235 0-.14.094-.218.094-.094.313-.094h1.687q.219 0 .313.094.093.078.093.218 0 .094-.062.188-.047.078-.125.11-.078.015-.406.015l-3.907 7.937h.97q.218 0 .312.078.093.079.093.22 0 .14-.093.218-.094.094-.313.094h-3.547q-.219 0-.312-.094-.094-.078-.094-.219 0-.14.094-.219.093-.078.312-.078h1.922l1.094-2.218zm10.986-5.938q0-.219.078-.312.094-.094.234-.094t.219.094q.094.093.094.328v1.047q0 .218-.094.328-.078.093-.219.093-.125 0-.219-.078-.078-.093-.093-.28-.047-.438-.453-.72-.594-.406-1.594-.406-1.031 0-1.594.422-.437.312-.437.703 0 .438.515.719.344.219 1.328.328 1.282.125 1.782.312.718.25 1.062.704.344.453.344.984 0 .781-.75 1.39-.75.61-2.219.61-1.453 0-2.39-.734 0 .25-.032.328-.015.062-.094.125-.078.047-.171.047-.141 0-.235-.094-.078-.094-.078-.313v-1.265q0-.219.078-.313.094-.11.235-.11.125 0 .218.095.094.093.094.25 0 .343.172.562.25.36.812.594.563.219 1.375.219 1.204 0 1.782-.438.593-.453.593-.953 0-.578-.593-.922-.61-.344-1.75-.453-1.141-.125-1.641-.313-.5-.187-.781-.562-.281-.39-.281-.828 0-.781.78-1.25.782-.469 1.845-.469 1.28 0 2.078.625zm5.704-.406h3.344q.219 0 .313.094.093.078.093.218 0 .141-.093.235-.094.078-.313.078h-3.344v4.094q0 .53.422.89.438.36 1.266.36.625 0 1.344-.188.734-.187 1.125-.422.156-.094.25-.094.109 0 .203.094.093.094.093.219 0 .11-.093.203-.235.234-1.141.516-.906.281-1.734.281-1.078 0-1.72-.5-.64-.5-.64-1.36v-4.093h-1.125q-.218 0-.328-.078-.094-.094-.094-.235 0-.14.094-.218.11-.094.328-.094h1.125v-1.813q0-.218.094-.312t.219-.094q.14 0 .219.094.093.094.093.312v1.813zm13.595 3.312h-6.265q.156 1.203 1 1.938.844.719 2.078.719.687 0 1.437-.22.75-.234 1.235-.609.14-.109.234-.109.125 0 .203.094.094.094.094.219t-.11.234q-.359.375-1.265.687-.89.313-1.828.313-1.594 0-2.656-1.031-1.047-1.032-1.047-2.5 0-1.344.984-2.297 1-.969 2.469-.969 1.5 0 2.469.984.984.985.968 2.547zm-.625-.609q-.171-1.031-.953-1.656-.78-.64-1.859-.64-1.078 0-1.86.624-.765.625-.968 1.672h5.64zm3.502-2.703v.625q.781-.844 1.578-.844.469 0 .828.25.36.25.594.766.422-.516.844-.766t.843-.25q.657 0 1.063.438.516.546.516 1.203v4.312h.515q.219 0 .313.078.11.078.11.22 0 .14-.11.233-.094.079-.313.079h-1.125v-4.86q0-.469-.297-.765-.28-.313-.656-.313-.328 0-.703.25-.375.25-.86 1v4.078h.516q.219 0 .313.078.093.078.093.22 0 .14-.093.233-.094.079-.313.079h-1.14v-4.813q0-.484-.297-.797-.282-.328-.64-.328-.33 0-.642.203-.453.313-.937 1.047v4.078h.516q.218 0 .312.078t.094.22q0 .14-.094.233-.094.079-.312.079h-1.657q-.218 0-.312-.079-.094-.093-.094-.234 0-.14.094-.219.094-.078.312-.078h.516v-5.11h-.516q-.218 0-.312-.077-.094-.094-.094-.235 0-.14.094-.218.094-.094.312-.094h1.14zm15.892 10.453h-8.187q-.22 0-.313-.094-.094-.078-.094-.219 0-.14.094-.218.094-.078.313-.078h8.187q.219 0 .313.078.093.078.093.218 0 .141-.093.22-.094.093-.313.093zm6.939-10.047q0-.219.078-.312.094-.094.234-.094.141 0 .22.094.093.093.093.328v1.047q0 .218-.094.328-.078.093-.219.093-.125 0-.218-.078-.078-.093-.094-.28-.047-.438-.453-.72-.594-.406-1.594-.406-1.031 0-1.594.422-.437.312-.437.703 0 .438.515.719.344.219 1.329.328 1.28.125 1.78.312.72.25 1.063.704.344.453.344.984 0 .781-.75 1.39-.75.61-2.219.61-1.453 0-2.39-.734 0 .25-.032.328-.015.062-.093.125-.078.047-.172.047-.14 0-.235-.094-.078-.094-.078-.313v-1.265q0-.219.078-.313.094-.11.235-.11.125 0 .219.095.093.093.093.25 0 .343.172.562.25.36.813.594.562.219 1.375.219 1.203 0 1.781-.438.594-.453.594-.953 0-.578-.594-.922-.61-.344-1.75-.453-1.14-.125-1.64-.313-.5-.187-.782-.562-.281-.39-.281-.828 0-.781.781-1.25t1.844-.469q1.281 0 2.078.625zm10.298 2.906h-6.265q.156 1.203 1 1.938.843.719 2.078.719.687 0 1.437-.22.75-.234 1.235-.609.14-.109.234-.109.125 0 .203.094.094.094.094.219t-.11.234q-.359.375-1.265.687-.89.313-1.828.313-1.594 0-2.656-1.031-1.047-1.032-1.047-2.5 0-1.344.984-2.297 1-.969 2.469-.969 1.5 0 2.469.984.984.985.968 2.547zm-.625-.609q-.172-1.031-.953-1.656-.781-.64-1.86-.64-1.077 0-1.859.624-.765.625-.968 1.672h5.64zm5.564-2.703v1.547q1.203-1.078 1.797-1.39.594-.313 1.11-.313.546 0 1.015.375.469.375.469.562 0 .14-.094.234-.094.079-.219.079-.078 0-.14-.016-.047-.031-.188-.172-.25-.25-.437-.344-.188-.093-.375-.093-.406 0-.985.328-.562.312-1.953 1.562v3.375h2.719q.234 0 .328.078t.094.22q0 .14-.094.233-.094.079-.328.079h-4.828q-.219 0-.313-.079-.093-.093-.093-.218t.093-.203q.094-.094.313-.094h1.5v-5.125h-1.14q-.22 0-.313-.078-.094-.094-.094-.235 0-.14.078-.218.094-.094.328-.094h1.75zm10.283 6.344h-1.047l-2.531-5.72h-.625q-.219 0-.313-.077-.093-.094-.093-.235 0-.14.093-.218.094-.094.313-.094h2.312q.22 0 .313.094.094.078.094.218 0 .141-.094.235-.094.078-.313.078h-1.03l2.265 5.11h.265l2.22-5.11h-1.032q-.219 0-.313-.078-.093-.094-.093-.235 0-.14.093-.218.094-.094.313-.094h2.312q.235 0 .313.094.094.078.094.218 0 .141-.094.235-.078.078-.313.078h-.625l-2.484 5.719zm11.783-3.032h-6.266q.156 1.203 1 1.938.844.719 2.078.719.688 0 1.438-.22.75-.234 1.234-.609.14-.109.234-.109.125 0 .204.094.093.094.093.219t-.109.234q-.36.375-1.266.687-.89.313-1.828.313-1.594 0-2.656-1.031-1.047-1.032-1.047-2.5 0-1.344.984-2.297 1-.969 2.47-.969 1.5 0 2.468.984.984.985.969 2.547zm-.625-.609q-.172-1.031-.953-1.656-.782-.64-1.86-.64t-1.86.624q-.765.625-.968 1.672h5.64zm5.564-2.703v1.547q1.203-1.078 1.797-1.39.593-.313 1.109-.313.547 0 1.016.375.468.375.468.562 0 .14-.093.234-.094.079-.22.079-.077 0-.14-.016-.047-.031-.187-.172-.25-.25-.438-.344-.187-.093-.375-.093-.406 0-.984.328-.563.312-1.953 1.562v3.375h2.718q.235 0 .329.078.093.078.093.22 0 .14-.093.233-.094.079-.329.079h-4.828q-.218 0-.312-.079-.094-.093-.094-.218t.094-.203q.094-.094.312-.094h1.5v-5.125h-1.14q-.22 0-.313-.078-.094-.094-.094-.235 0-.14.079-.218.093-.094.328-.094h1.75z"/></g></svg>