<svg version="1.1" viewBox="0.0 0.0 948.1653543307086 428.4776902887139" fill="none" stroke="none" stroke-linecap="square" stroke-miterlimit="10" xmlns:xlink="http://www.w3.org/1999/xlink" xmlns="http://www.w3.org/2000/svg"><clipPath id="p.0"><path d="m0 0l948.16534 0l0 428.4777l-948.16534 0l0 -428.4777z" clip-rule="nonzero"/></clipPath><g clip-path="url(#p.0)"><path fill="#000000" fill-opacity="0.0" d="m0 0l948.16534 0l0 428.4777l-948.16534 0z" fill-rule="evenodd"/><path fill="#000000" fill-opacity="0.0" d="m171.72078 189.52733l625.51184 0" fill-rule="evenodd"/><path stroke="#000000" stroke-width="2.0" stroke-linejoin="round" stroke-linecap="butt" d="m171.72078 189.52733l625.51184 0" fill-rule="evenodd"/><path fill="#a8dab5" d="m263.82275 4.0326214l358.07874 0l0 422.99213l-358.07874 0z" fill-rule="evenodd"/><path fill="#000000" fill-opacity="0.1346" d="m316.55652 232.45464l275.27557 0l0 157.79527l-275.27557 0z" fill-rule="evenodd"/><path fill="#fdedc5" d="m308.58347 224.48154l275.2756 0l0 157.79529l-275.2756 0z" fill-rule="evenodd"/><path fill="#000000" d="m405.6647 312.75543l9.625 -11.515625l-9.34375 0l0 -2.453125l12.671875 0l0 2.328125l-9.625 11.515625l9.890625 0l0 2.46875l-13.21875 0l0 -2.34375zm16.959015 -20.5625l7.734375 0q1.890625 0 3.515625 0.859375q1.640625 0.859375 2.609375 2.421875q0.984375 1.546875 0.984375 3.5q0 1.59375 -0.71875 2.96875q-0.71875 1.375 -1.984375 2.3125q-1.265625 0.921875 -2.796875 1.25l-0.0625 0.09375l6.453125 9.375l0 0.125l-3.1875 0l-6.25 -9.34375l-3.578125 0l0 9.34375l-2.71875 0l0 -22.90625zm7.578125 11.03125q1.1875 0 2.21875 -0.53125q1.046875 -0.546875 1.671875 -1.515625q0.625 -0.984375 0.625 -2.203125q0 -1.0625 -0.546875 -2.015625q-0.546875 -0.96875 -1.53125 -1.5625q-0.96875 -0.609375 -2.234375 -0.609375l-5.0625 0l0 8.4375l4.859375 0zm17.79892 -11.03125l3.0625 0l8.703125 22.90625l-2.96875 0l-2.296875 -6.296875l-9.921875 0l-2.3125 6.296875l-2.96875 0l8.703125 -22.90625zm5.5625 14.046875l-3.0625 -8.265625l-0.90625 -2.453125l-0.125 0l-0.890625 2.453125l-3.078125 8.265625l8.0625 0zm9.252533 -14.046875l3.9375 0l7.296875 18.78125l0.125 0l7.296875 -18.78125l3.9375 0l0 22.90625l-2.6875 0l0 -14.5625l0.125 -4.34375l-0.125 0l-7.5 18.90625l-2.234375 0l-7.484375 -18.90625l-0.125 0l0.125 4.34375l0 14.5625l-2.6875 0l0 -22.90625z" fill-rule="nonzero"/><path fill="#000000" fill-opacity="0.0" d="m107.16217 242.387l64.7769 0l0 -109.102356l-64.74541 0" fill-rule="evenodd"/><path stroke="#000000" stroke-width="2.0" stroke-linejoin="round" stroke-linecap="butt" d="m107.16217 242.387l64.7769 0l0 -109.102356l-64.74541 0" fill-rule="evenodd"/><path fill="#fbbc04" d="m732.7058 187.84085l0 0c0 -58.246475 47.21814 -105.46456 105.4646 -105.46456l0 0c27.970947 0 54.796265 11.111412 74.57471 30.889854c19.778442 19.778442 30.889832 46.603775 30.889832 74.57471l0 0c0 58.246475 -47.21808 105.46457 -105.46454 105.46457l0 0c-58.24646 0 -105.4646 -47.218094 -105.4646 -105.46457z" fill-rule="evenodd"/><path fill="#000000" d="m791.0754 200.07648q-1.71875 0 -3.34375 -0.71875q-1.609375 -0.71875 -2.859375 -2.109375q-1.25 -1.40625 -1.796875 -3.390625l2.59375 -1.046875q0.546875 2.046875 2.015625 3.359375q1.484375 1.3125 3.46875 1.3125q1.984375 0 3.359375 -1.0625q1.375 -1.078125 1.375 -2.9375q0 -1.609375 -1.171875 -2.640625q-1.171875 -1.046875 -3.828125 -1.9375l-1.4375 -0.515625q-2.4375 -0.859375 -3.96875 -2.265625q-1.53125 -1.40625 -1.53125 -3.90625q0 -1.625 0.890625 -3.015625q0.890625 -1.40625 2.484375 -2.234375q1.609375 -0.828125 3.59375 -0.828125q1.984375 0 3.453125 0.734375q1.484375 0.734375 2.359375 1.796875q0.875 1.046875 1.234375 2.078125l-2.53125 1.078125q-0.359375 -1.171875 -1.5 -2.125q-1.125 -0.96875 -2.984375 -0.96875q-1.75 0 -3.0 1.0q-1.25 0.984375 -1.25 2.484375q0 1.34375 1.046875 2.203125q1.0625 0.84375 3.203125 1.578125l1.515625 0.5q2.90625 1.0625 4.53125 2.65625q1.640625 1.578125 1.640625 4.296875q0 2.203125 -1.140625 3.71875q-1.140625 1.5 -2.875 2.203125q-1.71875 0.703125 -3.546875 0.703125zm16.512207 -0.265625q-0.984375 0 -1.84375 -0.3125q-0.84375 -0.328125 -1.40625 -0.859375q-1.28125 -1.21875 -1.28125 -3.359375l0 -9.578125l-2.859375 0l0 -2.453125l2.859375 0l0 -4.609375l2.71875 0l0 4.609375l4.0 0l0 2.453125l-4.0 0l0 8.90625q0 1.34375 0.5 1.984375q0.609375 0.703125 1.765625 0.703125q1.0 0 1.796875 -0.546875l0 2.65625q-0.484375 0.21875 -0.984375 0.3125q-0.484375 0.09375 -1.265625 0.09375zm12.257996 0.265625q-2.390625 0 -4.3125 -1.15625q-1.921875 -1.15625 -3.0 -3.140625q-1.0625 -1.984375 -1.0625 -4.375q0 -2.40625 1.0625 -4.390625q1.078125 -1.984375 3.0 -3.125q1.921875 -1.15625 4.3125 -1.15625q2.40625 0 4.328125 1.15625q1.921875 1.140625 2.984375 3.125q1.078125 1.984375 1.078125 4.390625q0 2.390625 -1.078125 4.375q-1.0625 1.984375 -2.984375 3.140625q-1.921875 1.15625 -4.328125 1.15625zm0 -2.46875q1.515625 0 2.796875 -0.75q1.296875 -0.75 2.078125 -2.15625q0.796875 -1.40625 0.796875 -3.296875q0 -1.890625 -0.796875 -3.296875q-0.78125 -1.40625 -2.078125 -2.15625q-1.28125 -0.765625 -2.796875 -0.765625q-1.5 0 -2.8125 0.765625q-1.3125 0.75 -2.09375 2.15625q-0.78125 1.40625 -0.78125 3.296875q0 1.890625 0.78125 3.296875q0.78125 1.40625 2.09375 2.15625q1.3125 0.75 2.8125 0.75zm11.236389 -14.359375l2.59375 0l0 2.609375l0.125 0q0.484375 -1.34375 1.859375 -2.21875q1.375 -0.875 2.875 -0.875q1.125 0 1.921875 0.3125l0 2.953125q-1.015625 -0.515625 -2.296875 -0.515625q-1.1875 0 -2.1875 0.671875q-0.984375 0.671875 -1.578125 1.8125q-0.59375 1.125 -0.59375 2.4375l0 9.125l-2.71875 0l0 -16.3125zm16.578796 16.828125q-1.796875 0 -3.203125 -0.703125q-1.40625 -0.703125 -2.171875 -1.9375q-0.765625 -1.234375 -0.765625 -2.796875q0 -2.59375 1.9375 -4.046875q1.953125 -1.46875 4.9375 -1.46875q1.46875 0 2.734375 0.328125q1.265625 0.3125 1.9375 0.734375l0 -1.0q0 -1.8125 -1.28125 -2.921875q-1.28125 -1.109375 -3.234375 -1.109375q-1.34375 0 -2.515625 0.59375q-1.15625 0.59375 -1.828125 1.65625l-2.046875 -1.546875q0.953125 -1.46875 2.640625 -2.296875q1.703125 -0.828125 3.75 -0.828125q3.328125 0 5.21875 1.75q1.890625 1.734375 1.890625 4.734375l0 10.34375l-2.59375 0l0 -2.34375l-0.125 0q-0.703125 1.1875 -2.125 2.03125q-1.40625 0.828125 -3.15625 0.828125zm0.25 -2.40625q1.375 0 2.5625 -0.703125q1.1875 -0.703125 1.890625 -1.875q0.703125 -1.1875 0.703125 -2.609375q-0.765625 -0.5 -1.890625 -0.8125q-1.125 -0.328125 -2.359375 -0.328125q-2.25 0 -3.390625 0.921875q-1.125 0.921875 -1.125 2.40625q0 1.34375 1.015625 2.171875q1.03125 0.828125 2.59375 0.828125zm18.535156 9.3125q-2.890625 0 -4.765625 -1.34375q-1.859375 -1.34375 -2.5 -3.234375l2.5 -1.046875q0.5 1.40625 1.765625 2.28125q1.265625 0.875 3.0 0.875q2.53125 0 3.921875 -1.46875q1.390625 -1.46875 1.390625 -4.15625l0 -1.828125l-0.125 0q-0.8125 1.25 -2.265625 2.03125q-1.453125 0.78125 -3.3125 0.78125q-2.109375 0 -3.859375 -1.078125q-1.734375 -1.09375 -2.765625 -3.046875q-1.015625 -1.953125 -1.015625 -4.4375q0 -2.46875 1.015625 -4.4375q1.03125 -1.96875 2.765625 -3.046875q1.75 -1.09375 3.859375 -1.09375q1.859375 0 3.3125 0.78125q1.453125 0.78125 2.265625 2.0625l0.125 0l0 -2.328125l2.59375 0l0 15.671875q0 3.9375 -2.1875 6.0q-2.171875 2.0625 -5.71875 2.0625zm0 -9.5625q1.46875 0 2.671875 -0.734375q1.203125 -0.734375 1.921875 -2.109375q0.71875 -1.390625 0.71875 -3.265625q0 -1.921875 -0.71875 -3.296875q-0.71875 -1.375 -1.921875 -2.09375q-1.203125 -0.734375 -2.671875 -0.734375q-1.46875 0 -2.6875 0.75q-1.21875 0.734375 -1.9375 2.109375q-0.71875 1.375 -0.71875 3.265625q0 1.875 0.71875 3.28125q0.71875 1.390625 1.9375 2.109375q1.21875 0.71875 2.6875 0.71875zm19.03778 2.65625q-2.34375 0 -4.203125 -1.125q-1.84375 -1.125 -2.890625 -3.078125q-1.03125 -1.96875 -1.03125 -4.4375q0 -2.34375 0.96875 -4.34375q0.984375 -2.0 2.78125 -3.171875q1.8125 -1.1875 4.15625 -1.1875q2.390625 0 4.140625 1.078125q1.765625 1.0625 2.703125 2.953125q0.953125 1.890625 0.953125 4.3125q0 0.390625 -0.0625 0.84375l-12.921875 0q0.09375 1.84375 0.890625 3.125q0.796875 1.28125 2.03125 1.921875q1.234375 0.640625 2.578125 0.640625q3.203125 0 4.828125 -2.9375l2.3125 1.109375q-1.03125 1.953125 -2.859375 3.125q-1.8125 1.171875 -4.375 1.171875zm4.703125 -10.40625q-0.0625 -1.015625 -0.578125 -2.03125q-0.515625 -1.03125 -1.609375 -1.734375q-1.078125 -0.71875 -2.734375 -0.71875q-1.921875 0 -3.265625 1.234375q-1.34375 1.234375 -1.765625 3.25l9.953125 0z" fill-rule="nonzero"/><path fill="#4285f4" d="m6.447597 84.603226l100.72441 0l0 97.354324l-100.72441 0z" fill-rule="evenodd"/><path fill="#000000" d="m38.00874 145.516q-3.328125 0 -6.0625 -1.5625q-2.734375 -1.578125 -4.3125 -4.328125q-1.5625 -2.75 -1.5625 -6.078125q0 -3.328125 1.5625 -6.0781174q1.578125 -2.75 4.3125 -4.3125q2.734375 -1.578125 6.0625 -1.578125q5.15625 0 8.484375 3.734375l-2.46875 2.40625q-1.1875 -1.40625 -2.640625 -2.109375q-1.453125 -0.703125 -3.34375 -0.703125q-2.328125 0 -4.25 1.078125q-1.921875 1.0625 -3.046875 3.0312424q-1.125 1.96875 -1.125 4.53125q0 2.5625 1.125 4.53125q1.125 1.96875 3.046875 3.046875q1.921875 1.0625 4.25 1.0625q3.90625 0 6.5625 -3.234375l2.53125 2.4375q-1.671875 1.953125 -4.015625 3.046875q-2.328125 1.078125 -5.109375 1.078125zm13.058792 -23.421867l7.875 0q2.046875 0 3.75 0.890625q1.7187462 0.890625 2.7187462 2.5q1.015625 1.59375 1.015625 3.6093674q0 2.015625 -1.015625 3.625q-1.0 1.59375 -2.7187462 2.5q-1.703125 0.890625 -3.75 0.890625l-4.359375 0l0 8.890625l-3.515625 0l0 -22.906242zm7.96875 10.687492q1.75 0 2.828125 -1.109375q1.078125 -1.109375 1.078125 -2.578125q0 -1.4687424 -1.078125 -2.5624924q-1.078125 -1.109375 -2.828125 -1.109375l-4.453125 0l0 7.3593674l4.453125 0zm19.16354 12.734375q-2.5625 0 -4.53125 -1.15625q-1.96875 -1.15625 -3.046875 -3.265625q-1.0625 -2.109375 -1.0625 -4.890625l0 -14.109367l3.484375 0l0 14.296867q0 2.59375 1.34375 4.203125q1.34375 1.59375 3.8125 1.59375q2.5 0 3.84375 -1.59375q1.34375 -1.609375 1.34375 -4.203125l0 -14.296867l3.484375 0l0 14.109367q0 2.75 -1.0625 4.859375q-1.046875 2.109375 -3.0 3.28125q-1.953125 1.171875 -4.609375 1.171875z" fill-rule="nonzero"/><path fill="#aecbf7" d="m6.447597 193.70876l100.72441 0l0 97.354324l-100.72441 0z" fill-rule="evenodd"/><path fill="#000000" d="m36.887234 254.62155q-3.265625 0 -6.015625 -1.5625q-2.75 -1.578125 -4.375 -4.3125q-1.609375 -2.734375 -1.609375 -6.09375q0 -3.359375 1.609375 -6.09375q1.625 -2.734375 4.375 -4.296875q2.75 -1.578125 6.015625 -1.578125q2.625 0 4.828125 0.9375q2.21875 0.921875 3.75 2.578125l-2.4375 2.4375q-2.328125 -2.625 -6.140625 -2.625q-2.234375 0 -4.1875 1.078125q-1.953125 1.0625 -3.109375 3.046875q-1.15625 1.984375 -1.15625 4.515625q0 2.5625 1.171875 4.53125q1.171875 1.96875 3.109375 3.046875q1.9375 1.0625 4.203125 1.0625q3.625 0 5.890625 -2.28125q0.734375 -0.703125 1.234375 -1.78125q0.5 -1.09375 0.6875 -2.40625l-7.875 0l0 -3.109375l11.140625 0q0.1875 1.09375 0.1875 1.859375q0 2.171875 -0.6875 4.140625q-0.6875 1.96875 -2.125 3.484375q-1.53125 1.65625 -3.6875 2.546875q-2.140625 0.875 -4.796875 0.875zm15.364304 -23.421875l7.875 0q2.046875 0 3.75 0.890625q1.7187462 0.890625 2.7187462 2.5q1.015625 1.59375 1.015625 3.609375q0 2.015625 -1.015625 3.625q-1.0 1.59375 -2.7187462 2.5q-1.703125 0.890625 -3.75 0.890625l-4.359375 0l0 8.890625l-3.515625 0l0 -22.90625zm7.96875 10.6875q1.75 0 2.828125 -1.109375q1.0781212 -1.109375 1.0781212 -2.578125q0 -1.46875 -1.0781212 -2.5625q-1.078125 -1.109375 -2.828125 -1.109375l-4.453125 0l0 7.359375l4.453125 0zm19.16354 12.734375q-2.5625 0 -4.53125 -1.15625q-1.96875 -1.15625 -3.046875 -3.265625q-1.0625 -2.109375 -1.0625 -4.890625l0 -14.109375l3.484375 0l0 14.296875q0 2.59375 1.34375 4.203125q1.34375 1.59375 3.8125 1.59375q2.5 0 3.84375 -1.59375q1.34375 -1.609375 1.34375 -4.203125l0 -14.296875l3.484375 0l0 14.109375q0 2.75 -1.0625 4.859375q-1.046875 2.109375 -3.0 3.28125q-1.953125 1.171875 -4.609375 1.171875z" fill-rule="nonzero"/><path fill="#000000" fill-opacity="0.0" d="m285.382 43.150723l314.9606 0l0 62.70866l-314.9606 0z" fill-rule="evenodd"/><path fill="#000000" d="m410.43198 59.964474l8.03125 0q2.078125 0 3.75 0.890625q1.6875 0.890625 2.65625 2.5q0.984375 1.5937538 0.984375 3.6093788q0 2.3125 -1.484375 4.09375q-1.484375 1.765625 -3.734375 2.375l-0.03125 0.15625l6.3125 9.09375l0 0.1875l-4.0625 0l-6.125 -8.984375l-2.78125 0l0 8.984375l-3.515625 0l0 -22.906254zm7.9375 10.687504q1.65625 0 2.796875 -1.0625q1.140625 -1.0625 1.140625 -2.65625q0 -1.46875 -1.046875 -2.5625q-1.03125 -1.1093788 -2.765625 -1.1093788l-4.546875 0l0 7.390629l4.421875 0zm18.1138 -10.687504l4.0 0l8.671875 22.906254l-3.875 0l-2.109375 -5.890625l-9.34375 0l-2.109375 5.890625l-3.875 0l8.640625 -22.906254zm5.53125 13.750004l-2.5625 -7.0l-0.859375 -2.625l-0.1875 0l-0.875 2.625l-2.5625 7.0l7.046875 0zm10.209534 -13.750004l4.734375 0l6.6875 17.437504l0.1875 0l6.71875 -17.437504l4.734375 0l0 22.906254l-3.453125 0l0 -12.953125l0.203125 -4.078125l-0.203125 0l-6.6875 17.03125l-2.78125 0l-6.6875 -17.03125l-0.1875 0l0.1875 4.078125l0 12.953125l-3.453125 0l0 -22.906254z" fill-rule="nonzero"/></g></svg>